<svg width="314" height="146" fill="none" xmlns="http://www.w3.org/2000/svg"><path d="M138.88 65.44c-1.413 2.107-2.56 3.68-3.44 4.72v.04l7.32.16c1.573.027 2.8-.427 3.68-1.36.907-.96 1.36-2.48 1.36-4.56h2.64L150.2 73h-20.6v-3l11.96-18.24c1.173-1.787 2.107-3.093 2.8-3.92v-.04l-6.84-.2c-1.573-.053-2.813.4-3.72 1.36-.907.96-1.36 2.48-1.36 4.56h-2.64l.24-8.52h20.36v3l-11.52 17.44zm24.221-11.2c1.84 0 3.493.387 4.96 1.16 1.493.747 2.653 1.827 3.48 3.24.853 1.413 1.28 3.067 1.28 4.96 0 2-.414 3.76-1.24 5.28a8.55 8.55 0 01-3.4 3.48c-1.44.827-3.094 1.24-4.96 1.24-1.867 0-3.547-.373-5.04-1.12-1.494-.773-2.667-1.853-3.52-3.24-.854-1.413-1.28-3.053-1.28-4.92 0-1.973.44-3.72 1.32-5.24.88-1.52 2.053-2.707 3.52-3.56 1.493-.853 3.12-1.28 4.88-1.28zm0 2.56c-1.414 0-2.44.627-3.08 1.88-.64 1.253-.96 2.8-.96 4.64 0 2.107.346 3.92 1.04 5.44.693 1.493 1.76 2.24 3.2 2.24 2.533 0 3.8-2.173 3.8-6.52 0-2.08-.32-3.88-.96-5.4-.64-1.52-1.654-2.28-3.04-2.28zm37.034-2.56c2.133 0 3.72.587 4.76 1.76 1.04 1.147 1.56 3.08 1.56 5.8v5.36c0 1.147-.054 2.213-.16 3.2.8-.08 1.64-.12 2.52-.12V73h-9.76v-2.36c.8 0 1.32-.253 1.56-.76.24-.533.36-1.36.36-2.48v-5.56c-.027-1.493-.294-2.56-.8-3.2-.48-.64-1.187-.987-2.12-1.04-1.2 0-2.347.4-3.44 1.2.24.987.36 2.147.36 3.48v4.88c0 1.147-.054 2.213-.16 3.2.8-.08 1.64-.12 2.52-.12V73h-9.96v-2.36c.906 0 1.48-.253 1.72-.76.266-.533.4-1.36.4-2.48l-.04-5.68c0-1.52-.24-2.587-.72-3.2-.454-.613-1.134-.92-2.04-.92-1.147 0-2.24.44-3.28 1.32v8.24c0 1.147-.054 2.213-.16 3.2.8-.08 1.573-.12 2.32-.12V73h-9.88v-2.36c.96 0 1.573-.253 1.84-.76.266-.507.4-1.333.4-2.48v-6.12c0-1.093.053-2.12.16-3.08l-2.68.12v-2.76c1.6 0 2.906-.107 3.92-.32 1.013-.24 1.68-.507 2-.8h1.88c0 .053.053.667.16 1.84h.08c.8-.587 1.693-1.067 2.68-1.44 1.013-.4 2-.6 2.96-.6 2.266 0 3.853.8 4.76 2.4a12.01 12.01 0 013.08-1.72c1.12-.453 2.186-.68 3.2-.68zm17.268 1.96c1.573-1.307 3.306-1.96 5.2-1.96 1.546 0 2.906.387 4.08 1.16 1.173.747 2.08 1.813 2.72 3.2.666 1.387 1 3 1 4.84 0 1.947-.387 3.693-1.16 5.24-.747 1.547-1.827 2.76-3.24 3.64-1.414.853-3.067 1.28-4.96 1.28-.907 0-1.867-.173-2.88-.52-1.014-.32-1.92-.88-2.721-1.68h-.039l-1.12 1.6h-2.32V52.44c0-1.387.04-2.44.12-3.16l-2.681.12v-2.76c1.601 0 2.907-.107 3.921-.32 1.013-.24 1.68-.493 2-.76h2.08V56.2zm3.24 1.32c-.667 0-1.294.147-1.88.44a3.5 3.5 0 00-1.36 1.12v8.48c0 1.173.293 2.027.88 2.56.586.533 1.28.8 2.08.8 1.546 0 2.653-.653 3.32-1.96.693-1.307 1.04-2.96 1.04-4.96 0-1.813-.347-3.347-1.04-4.6-.667-1.253-1.68-1.88-3.04-1.88zm21.189-3.28c4.747 0 7.12 2.32 7.12 6.96l-.04 5.96c0 1.147-.053 2.213-.16 3.2a26.98 26.98 0 012.52-.12V73h-7.28c-.053-.32-.107-.88-.16-1.68h-.04c-1.547 1.52-3.44 2.28-5.68 2.28-1.627 0-2.907-.453-3.84-1.36-.933-.907-1.4-2.067-1.4-3.48 0-2.133 1.04-3.747 3.12-4.84 2.107-1.12 4.64-1.747 7.6-1.88v-1.88c0-2.213-.893-3.32-2.68-3.32-.507 0-1 .093-1.48.28-.48.187-.88.44-1.2.76.293.347.44.8.44 1.36 0 .587-.213 1.12-.64 1.6-.427.453-1.04.68-1.84.68-.773 0-1.387-.227-1.84-.68-.427-.48-.64-1.08-.64-1.8 0-.933.36-1.76 1.08-2.48.72-.747 1.693-1.32 2.92-1.72 1.253-.4 2.627-.6 4.12-.6zm1.72 10.4c-1.52.133-2.773.507-3.76 1.12-.987.587-1.48 1.36-1.48 2.32 0 .64.213 1.12.64 1.44.427.32.947.48 1.56.48 1.173 0 2.187-.427 3.04-1.28v-4.08zm19.634-10.4c1.547 0 2.88.24 4 .72 1.12.453 1.96 1.067 2.52 1.84.587.747.88 1.547.88 2.4 0 .773-.24 1.427-.72 1.96-.48.533-1.133.8-1.96.8-.853 0-1.493-.24-1.92-.72-.4-.48-.6-1.027-.6-1.64 0-.24.04-.507.12-.8.08-.293.187-.56.32-.8a1.842 1.842 0 00-1.12-.92 4.048 4.048 0 00-1.48-.28c-1.333 0-2.413.56-3.24 1.68-.8 1.12-1.2 2.707-1.2 4.76 0 2.027.4 3.707 1.2 5.04.827 1.307 2.12 2 3.88 2.08 1.067.027 2.12-.213 3.16-.72a7.757 7.757 0 002.64-2.08l1.76 1.64c-1.28 1.653-2.653 2.8-4.12 3.44a11.57 11.57 0 01-4.68.96c-1.76 0-3.36-.373-4.8-1.12a8.642 8.642 0 01-3.44-3.2c-.826-1.413-1.24-3.067-1.24-4.96 0-1.84.427-3.52 1.28-5.04a9.634 9.634 0 013.56-3.68c1.547-.907 3.28-1.36 5.2-1.36zm19.399 7.88l2.76-3c.747-.8 1.254-1.307 1.52-1.52v-.04l-2.04.04v-2.8h8.64v2.36c-1.226.133-2.266.453-3.12.96a10.425 10.425 0 00-2.32 1.88l-2.48 2.6v.04c.4.187.787.453 1.16.8.374.32.827.8 1.36 1.44l2.56 3.2c.64.773 1.214 1.4 1.72 1.88a2.76 2.76 0 001.84.68V73h-4.44a3.246 3.246 0 01-2.04-.68c-.586-.48-1.333-1.307-2.24-2.48-.693-.88-1.613-2.12-2.76-3.72l-1.08-1.44-.88.04v2.44c0 1.147-.053 2.213-.16 3.2.8-.08 1.627-.12 2.48-.12V73h-10.12v-2.36c.987 0 1.614-.253 1.88-.76.294-.533.44-1.36.44-2.48V52.44c0-1.147.054-2.2.16-3.16l-2.72.12v-2.76c1.6 0 2.907-.107 3.92-.32 1.014-.24 1.68-.493 2-.76h2.12v16.56h1.84zM5.232 119.096c0 .8-.024 1.416-.072 1.848l2.208-.12V122H1.152v-.888h.072c.544 0 .928-.112 1.152-.336.224-.24.352-.52.384-.84.032-.32.048-.896.048-1.728v-10.272c0-.64.024-1.2.072-1.68l-1.728.096V105.2c2.368-.032 4.208-.048 5.52-.048 2.416 0 4.256.424 5.52 1.272 1.264.848 1.896 2.08 1.896 3.696 0 .944-.248 1.84-.744 2.688-.496.832-1.352 1.528-2.568 2.088s-2.832.84-4.848.84a8.03 8.03 0 01-.696-.024v3.384zm1.392-12.912c-.592 0-.976.16-1.152.48-.16.32-.24.84-.24 1.56v6.408H5.16c.368.048.856.072 1.464.072.896 0 1.704-.168 2.424-.504a4.08 4.08 0 001.728-1.512c.432-.672.648-1.464.648-2.376 0-2.752-1.6-4.128-4.8-4.128zm15.97 4.416c.465 0 .857.128 1.177.384.336.256.504.632.504 1.128 0 .256-.104.52-.312.792-.208.272-.496.408-.864.408-.336 0-.624-.12-.864-.36a1.278 1.278 0 01-.336-.864c-.528.016-1.056.24-1.584.672-.512.416-.944.952-1.296 1.608v5.328c0 .592-.024 1.032-.072 1.32l1.392-.048v1.176h-4.8v-.936h.024c.416.016.712-.064.888-.24.192-.192.304-.44.336-.744.032-.32.048-.832.048-1.536v-4.968c0-.56.024-.992.072-1.296l-1.56.072v-1.176h.816c.56 0 .96-.048 1.2-.144.24-.096.472-.248.696-.456h.792c.064.512.104 1.144.12 1.896a5.783 5.783 0 011.608-1.416c.656-.4 1.328-.6 2.016-.6zm7.95-.024c1.024 0 1.952.248 2.784.744a5.26 5.26 0 011.992 2.064c.48.864.72 1.832.72 2.904 0 1.152-.24 2.208-.72 3.168-.48.944-1.136 1.696-1.968 2.256-.832.544-1.768.816-2.808.816-1.024 0-1.952-.24-2.784-.72a5.359 5.359 0 01-1.968-2.04c-.464-.88-.696-1.864-.696-2.952 0-1.168.232-2.224.696-3.168.48-.96 1.136-1.712 1.968-2.256a4.978 4.978 0 012.784-.816zm0 1.152c-1.072 0-1.88.424-2.424 1.272-.528.848-.792 1.904-.792 3.168 0 1.44.288 2.656.864 3.648.592.992 1.432 1.488 2.52 1.488s1.88-.408 2.376-1.224c.496-.832.744-1.888.744-3.168 0-1.424-.28-2.64-.84-3.648-.544-1.024-1.36-1.536-2.448-1.536zm18.601 10.416h-3.408a13.894 13.894 0 01-.168-.984 5.066 5.066 0 01-3.456 1.344 4.703 4.703 0 01-2.52-.696c-.752-.464-1.344-1.128-1.776-1.992-.432-.864-.648-1.856-.648-2.976 0-1.184.248-2.248.744-3.192.512-.96 1.216-1.704 2.112-2.232.896-.544 1.896-.816 3-.816.416 0 .848.056 1.296.168a4.83 4.83 0 011.176.384v-2.784c0-.512.016-.936.048-1.272l-1.536.072v-1.2h.024c.944 0 1.592-.048 1.944-.144.368-.096.648-.24.84-.432h.84v14.304c0 .368-.024.808-.072 1.32l1.56-.072v1.2zm-3.648-2.352a19.42 19.42 0 01-.024-1.152l.024-6.192c-.64-.48-1.424-.72-2.352-.72-1.024 0-1.856.416-2.496 1.248-.624.832-.936 1.944-.936 3.336 0 1.456.272 2.624.816 3.504.56.88 1.352 1.32 2.376 1.32.464 0 .928-.12 1.392-.36a4.206 4.206 0 001.2-.984zm17.053 2.352h-3.408a9.459 9.459 0 01-.168-1.176 6.503 6.503 0 01-1.704 1.104c-.624.288-1.232.432-1.824.432-1.28 0-2.232-.376-2.856-1.128-.608-.752-.912-2.016-.912-3.792v-3.864c0-.56.016-.992.048-1.296l-1.488.072v-1.176h.816c.592 0 1.024-.048 1.296-.144a1.82 1.82 0 00.696-.456h.84v6.816c0 1.232.168 2.136.504 2.712.336.56.912.84 1.728.84.528 0 1.04-.152 1.536-.456.496-.304.904-.68 1.224-1.128v-5.544c0-.624.032-1.136.096-1.536l-1.56.072v-1.176h.792c.592 0 1.032-.048 1.32-.144a1.82 1.82 0 00.696-.456h.84l-.024 8.4c0 .736-.032 1.368-.096 1.896l1.608-.072v1.2zm7.407-11.544c.8 0 1.52.136 2.16.408.656.256 1.16.6 1.512 1.032.368.432.552.896.552 1.392 0 .352-.12.656-.36.912a1.096 1.096 0 01-.864.384c-.352 0-.624-.128-.816-.384-.192-.256-.288-.504-.288-.744 0-.352.104-.656.312-.912a1.376 1.376 0 00-.888-.768 3.863 3.863 0 00-1.272-.216c-1.024 0-1.864.392-2.52 1.176-.64.784-.96 1.888-.96 3.312 0 1.456.336 2.632 1.008 3.528.688.896 1.592 1.344 2.712 1.344.672 0 1.32-.176 1.944-.528.64-.368 1.136-.824 1.488-1.368h.024l.792.552a5.643 5.643 0 01-2.208 2.088c-.896.464-1.784.696-2.664.696a5.89 5.89 0 01-2.832-.696 5.3 5.3 0 01-2.04-1.992c-.496-.88-.744-1.904-.744-3.072a6.11 6.11 0 01.768-2.952 6.039 6.039 0 012.136-2.304 5.48 5.48 0 013.048-.888zm9.575-1.056l-.025 1.392h3.744v1.152l-3.72.048-.047 5.904c0 1.024.112 1.768.336 2.232.224.464.632.696 1.224.696.383 0 .76-.112 1.127-.336a2.91 2.91 0 00.96-1.008h.049l.791.624c-1.008 1.504-2.184 2.256-3.528 2.256-2.127 0-3.183-1.392-3.168-4.176l.048-6.168-1.703.024v-1.248c.736.032 1.343-.264 1.823-.888a6.617 6.617 0 001.129-2.16h.96v1.656zm23.754 12.6h-3.408a13.894 13.894 0 01-.168-.984 5.066 5.066 0 01-3.456 1.344 4.703 4.703 0 01-2.52-.696c-.752-.464-1.344-1.128-1.776-1.992-.432-.864-.648-1.856-.648-2.976 0-1.184.248-2.248.744-3.192.512-.96 1.216-1.704 2.112-2.232.896-.544 1.896-.816 3-.816.416 0 .848.056 1.296.168a4.83 4.83 0 011.176.384v-2.784c0-.512.016-.936.048-1.272l-1.536.072v-1.2h.024c.944 0 1.592-.048 1.944-.144.368-.096.648-.24.84-.432h.84v14.304c0 .368-.024.808-.072 1.32l1.56-.072v1.2zm-3.648-2.352a19.42 19.42 0 01-.024-1.152l.024-6.192c-.64-.48-1.424-.72-2.352-.72-1.024 0-1.856.416-2.496 1.248-.624.832-.936 1.944-.936 3.336 0 1.456.272 2.624.816 3.504.56.88 1.352 1.32 2.376 1.32.464 0 .928-.12 1.392-.36a4.206 4.206 0 001.2-.984zm15.709.048a5.491 5.491 0 01-2.28 1.992c-.944.448-1.856.672-2.736.672-1.04 0-1.984-.24-2.832-.72-.832-.496-1.496-1.192-1.992-2.088-.48-.912-.72-1.952-.72-3.12 0-1.04.24-2.016.72-2.928a5.773 5.773 0 012.04-2.208c.88-.56 1.864-.84 2.952-.84.88 0 1.672.192 2.376.576.704.384 1.256.96 1.656 1.728.416.768.616 1.704.6 2.808h-.024l-7.824.12h.024c.016 1.68.312 2.976.888 3.888.576.912 1.464 1.368 2.664 1.368.704 0 1.408-.176 2.112-.528.72-.352 1.256-.784 1.608-1.296h.048l.72.576zm-4.824-8.112c-.848 0-1.536.232-2.064.696-.512.464-.864 1.2-1.056 2.208h5.4c-.016-.816-.216-1.504-.6-2.064-.368-.56-.928-.84-1.68-.84zm8.801 1.488c0 .544.224.976.672 1.296.464.304 1.168.64 2.112 1.008.784.304 1.424.592 1.92.864.512.272.936.64 1.272 1.104.352.448.528 1 .528 1.656 0 .736-.192 1.36-.576 1.872-.384.496-.88.864-1.488 1.104a4.898 4.898 0 01-1.92.384c-.64 0-1.24-.08-1.8-.24a6.496 6.496 0 01-1.464-.6l.096.624h-1.2l-.144-4.032h.96c0 .592.136 1.128.408 1.608.288.464.672.832 1.152 1.104a3.405 3.405 0 001.584.384c.608 0 1.144-.136 1.608-.408.48-.272.72-.664.72-1.176 0-.512-.216-.912-.648-1.2-.432-.288-1.112-.616-2.04-.984a19.398 19.398 0 01-1.944-.816 3.995 3.995 0 01-1.272-1.104c-.352-.464-.528-1.048-.528-1.752 0-.48.12-.976.36-1.488.256-.512.672-.944 1.248-1.296.592-.352 1.368-.528 2.328-.528.96 0 1.84.272 2.64.816l-.048-.72h1.176v4.128h-.936c-.048-.864-.296-1.6-.744-2.208-.448-.608-1.112-.912-1.992-.912-.64 0-1.144.144-1.512.432-.352.288-.528.648-.528 1.08zm10.715-5.712c-.368 0-.696-.152-.984-.456a1.566 1.566 0 01-.408-1.08c0-.432.144-.8.432-1.104.288-.304.616-.456.984-.456.384 0 .712.152.984.456.272.304.408.672.408 1.104 0 .416-.144.776-.432 1.08-.288.304-.616.456-.984.456zm2.448 14.64h-4.776v-.936h.024c.416.016.712-.064.888-.24.192-.192.304-.44.336-.744.032-.32.048-.832.048-1.536v-4.968c0-.368.024-.8.072-1.296l-1.536.096v-1.2h.024c.944 0 1.6-.048 1.968-.144.368-.112.64-.264.816-.456h.84v8.976c0 .592-.024 1.032-.072 1.32l1.368-.048v1.176zm11.507-11.328c-.48.112-.84.52-1.08 1.224.368.352.656.76.864 1.224.224.448.336.92.336 1.416 0 .816-.224 1.56-.672 2.232a4.673 4.673 0 01-1.8 1.584 5.188 5.188 0 01-2.352.552c-.272 0-.528-.024-.768-.072a6.73 6.73 0 00-.72-.048c-.464 0-.848.096-1.152.288-.304.176-.456.4-.456.672 0 .352.256.592.768.72.528.112 1.416.192 2.664.24 1.856.096 3.256.4 4.2.912.944.512 1.416 1.352 1.416 2.52a2.79 2.79 0 01-.816 2.016c-.544.576-1.248 1.008-2.112 1.296a7.834 7.834 0 01-2.664.456c-1.92 0-3.344-.296-4.272-.888-.928-.592-1.392-1.32-1.392-2.184 0-.576.176-1.096.528-1.56a3.592 3.592 0 011.272-1.032c-.864-.368-1.296-.952-1.296-1.752 0-.496.176-.96.528-1.392.368-.448.84-.752 1.416-.912a3.884 3.884 0 01-1.44-1.344 3.61 3.61 0 01-.528-1.92c0-.864.232-1.632.696-2.304a4.642 4.642 0 011.8-1.584 5.06 5.06 0 012.328-.576c.992 0 1.912.256 2.76.768a3.438 3.438 0 011.104-1.488c.512-.4 1.056-.6 1.632-.6.4 0 .712.112.936.336.24.224.36.528.36.912 0 .224-.088.456-.264.696-.176.224-.424.336-.744.336-.272 0-.504-.072-.696-.216a1.254 1.254 0 01-.384-.528zm-4.632 7.152c.768 0 1.344-.256 1.728-.768.4-.512.6-1.2.6-2.064 0-.992-.216-1.816-.648-2.472-.416-.672-1.016-1.008-1.8-1.008-.752 0-1.344.272-1.776.816-.416.528-.624 1.232-.624 2.112 0 1.04.216 1.864.648 2.472.448.608 1.072.912 1.872.912zm-2.208 4.728c-.784.544-1.176 1.216-1.176 2.016 0 .672.328 1.208.984 1.608.656.4 1.544.6 2.664.6 1.216 0 2.176-.216 2.88-.648.704-.416 1.056-.928 1.056-1.536 0-.704-.344-1.184-1.032-1.44-.688-.24-1.728-.384-3.12-.432a24.428 24.428 0 01-2.256-.168zm21.352-.696h-4.68v-.984c.432.016.736-.064.912-.24.192-.192.304-.44.336-.744.032-.32.048-.824.048-1.512v-2.88c-.016-1.248-.208-2.16-.576-2.736-.368-.592-.984-.888-1.848-.888-.512 0-1.032.128-1.56.384-.512.24-.936.56-1.272.96.016.144.024.4.024.768l-.024 5.4c0 .592-.016 1.024-.048 1.296l1.368-.048V122h-4.68v-.984c.432.016.736-.064.912-.24.176-.192.28-.432.312-.72.032-.304.056-.816.072-1.536l.024-4.8c0-.544.024-.968.072-1.272l-1.56.096v-1.248c.928 0 1.552-.048 1.872-.144.336-.096.608-.24.816-.432v-.024h.72v.048c.048.256.088.688.12 1.296v-.048a6.382 6.382 0 011.704-1.032 4.843 4.843 0 011.848-.384c1.28 0 2.232.416 2.856 1.248.624.816.936 2.088.936 3.816v3.888c0 .592-.024 1.024-.072 1.296l1.368-.048V122zm12.083-2.16a5.491 5.491 0 01-2.28 1.992c-.944.448-1.856.672-2.736.672-1.04 0-1.984-.24-2.832-.72-.832-.496-1.496-1.192-1.992-2.088-.48-.912-.72-1.952-.72-3.12 0-1.04.24-2.016.72-2.928a5.773 5.773 0 012.04-2.208c.88-.56 1.864-.84 2.952-.84.88 0 1.672.192 2.376.576.704.384 1.256.96 1.656 1.728.416.768.616 1.704.6 2.808h-.024l-7.824.12h.024c.016 1.68.312 2.976.888 3.888.576.912 1.464 1.368 2.664 1.368.704 0 1.408-.176 2.112-.528.72-.352 1.256-.784 1.608-1.296h.048l.72.576zm-4.824-8.112c-.848 0-1.536.232-2.064.696-.512.464-.864 1.2-1.056 2.208h5.4c-.016-.816-.216-1.504-.6-2.064-.368-.56-.928-.84-1.68-.84zm13.673-1.128c.464 0 .856.128 1.176.384.336.256.504.632.504 1.128 0 .256-.104.52-.312.792-.208.272-.496.408-.864.408-.336 0-.624-.12-.864-.36a1.278 1.278 0 01-.336-.864c-.528.016-1.056.24-1.584.672-.512.416-.944.952-1.296 1.608v5.328c0 .592-.024 1.032-.072 1.32l1.392-.048v1.176h-4.8v-.936h.024c.416.016.712-.064.888-.24.192-.192.304-.44.336-.744.032-.32.048-.832.048-1.536v-4.968c0-.56.024-.992.072-1.296l-1.56.072v-1.176h.816c.56 0 .96-.048 1.2-.144.24-.096.472-.248.696-.456h.792c.064.512.104 1.144.12 1.896a5.783 5.783 0 011.608-1.416c.656-.4 1.328-.6 2.016-.6zm15.451-5.784c.784 0 1.48.152 2.088.456.608.288 1.08.688 1.416 1.2a3.04 3.04 0 01.504 1.704c0 .928-.312 1.784-.936 2.568-.608.768-1.608 1.504-3 2.208.384.416 1.024 1.088 1.92 2.016a64.13 64.13 0 002.52 2.472c.16-.544.24-1.056.24-1.536 0-.64-.144-1.192-.432-1.656-.272-.464-.736-.712-1.392-.744v-.792h4.2v.984l-1.992-.096c.496.432.744 1.152.744 2.16 0 .8-.16 1.624-.48 2.472l.48.432c.224.208.464.424.72.648.688.624 1.296 1.096 1.824 1.416.528.32.928.48 1.2.48V122h-2.232c-.176 0-.528-.168-1.056-.504-.528-.336-1.168-.832-1.92-1.488-1.232 1.584-2.952 2.376-5.16 2.376-.992 0-1.92-.16-2.784-.48a4.677 4.677 0 01-2.064-1.56c-.528-.704-.792-1.592-.792-2.664 0-1.008.328-1.912.984-2.712.672-.816 1.6-1.48 2.784-1.992-.64-.816-1.104-1.56-1.392-2.232a5.539 5.539 0 01-.432-2.16c.016-1.136.432-2.048 1.248-2.736.832-.688 1.896-1.032 3.192-1.032zm-.12.768c-.672 0-1.224.248-1.656.744-.432.496-.648 1.184-.648 2.064 0 1.2.656 2.528 1.968 3.984.864-.576 1.52-1.224 1.968-1.944.448-.72.672-1.448.672-2.184 0-.784-.208-1.424-.624-1.92-.4-.496-.96-.744-1.68-.744zm-1.872 8.088a3.74 3.74 0 00-1.512 1.68c-.32.688-.48 1.344-.48 1.968 0 1.28.368 2.248 1.104 2.904.736.64 1.624.96 2.664.96 1.632 0 2.92-.616 3.864-1.848-.32-.288-.552-.504-.696-.648l-.36-.336c-.24-.24-.912-.896-2.016-1.968-1.088-1.088-1.944-1.992-2.568-2.712zm30.74 8.472h-3.408a13.894 13.894 0 01-.168-.984 5.066 5.066 0 01-3.456 1.344 4.703 4.703 0 01-2.52-.696c-.752-.464-1.344-1.128-1.776-1.992-.432-.864-.648-1.856-.648-2.976 0-1.184.248-2.248.744-3.192.512-.96 1.216-1.704 2.112-2.232.896-.544 1.896-.816 3-.816.416 0 .848.056 1.296.168a4.83 4.83 0 011.176.384v-2.784c0-.512.016-.936.048-1.272l-1.536.072v-1.2h.024c.944 0 1.592-.048 1.944-.144.368-.096.648-.24.84-.432h.84v14.304c0 .368-.024.808-.072 1.32l1.56-.072v1.2zm-3.648-2.352a19.42 19.42 0 01-.024-1.152l.024-6.192c-.64-.48-1.424-.72-2.352-.72-1.024 0-1.856.416-2.496 1.248-.624.832-.936 1.944-.936 3.336 0 1.456.272 2.624.816 3.504.56.88 1.352 1.32 2.376 1.32.464 0 .928-.12 1.392-.36a4.206 4.206 0 001.2-.984zm15.71.048a5.491 5.491 0 01-2.28 1.992c-.944.448-1.856.672-2.736.672-1.04 0-1.984-.24-2.832-.72-.832-.496-1.496-1.192-1.992-2.088-.48-.912-.72-1.952-.72-3.12 0-1.04.24-2.016.72-2.928a5.773 5.773 0 012.04-2.208c.88-.56 1.864-.84 2.952-.84.88 0 1.672.192 2.376.576.704.384 1.256.96 1.656 1.728.416.768.616 1.704.6 2.808h-.024l-7.824.12h.024c.016 1.68.312 2.976.888 3.888.576.912 1.464 1.368 2.664 1.368.704 0 1.408-.176 2.112-.528.72-.352 1.256-.784 1.608-1.296h.048l.72.576zm-4.824-8.112c-.848 0-1.536.232-2.064.696-.512.464-.864 1.2-1.056 2.208h5.4c-.016-.816-.216-1.504-.6-2.064-.368-.56-.928-.84-1.68-.84zm16.961.168h-.024a1.12 1.12 0 00-.816.264c-.208.192-.4.472-.576.84-.176.352-.424.928-.744 1.728l-2.952 7.488h-1.032l-3.24-7.224c-.56-1.264-.872-2.24-.936-2.928l-.984.072v-1.2h4.368v.96h-.024c-.64-.016-.96.216-.96.696 0 .304.152.816.456 1.536l1.728 3.84.552 1.32.408-1.128 1.776-4.776c.112-.336.296-.776.552-1.32l-1.296.072v-1.2h3.744v.96zm11.417 7.944a5.491 5.491 0 01-2.28 1.992c-.944.448-1.856.672-2.736.672-1.04 0-1.984-.24-2.832-.72-.832-.496-1.496-1.192-1.992-2.088-.48-.912-.72-1.952-.72-3.12 0-1.04.24-2.016.72-2.928a5.773 5.773 0 012.04-2.208c.88-.56 1.864-.84 2.952-.84.88 0 1.672.192 2.376.576.704.384 1.256.96 1.656 1.728.416.768.616 1.704.6 2.808h-.024l-7.824.12h.024c.016 1.68.312 2.976.888 3.888.576.912 1.464 1.368 2.664 1.368.704 0 1.408-.176 2.112-.528.72-.352 1.256-.784 1.608-1.296h.048l.72.576zm-4.824-8.112c-.848 0-1.536.232-2.064.696-.512.464-.864 1.2-1.056 2.208h5.4c-.016-.816-.216-1.504-.6-2.064-.368-.56-.928-.84-1.68-.84zm11.178 10.416h-4.8v-.936h.024c.432.016.736-.064.912-.24.192-.192.304-.44.336-.744.032-.32.048-.832.048-1.536v-10.32c0-.512.016-.936.048-1.272l-1.56.072v-1.2h.024c.928 0 1.576-.048 1.944-.144.384-.096.688-.24.912-.432h.792l.024 14.304c0 .496-.032.936-.096 1.32l1.392-.048v1.176zm6.952-11.568c1.024 0 1.952.248 2.784.744a5.26 5.26 0 011.992 2.064c.48.864.72 1.832.72 2.904 0 1.152-.24 2.208-.72 3.168-.48.944-1.136 1.696-1.968 2.256-.832.544-1.768.816-2.808.816-1.024 0-1.952-.24-2.784-.72a5.359 5.359 0 01-1.968-2.04c-.464-.88-.696-1.864-.696-2.952 0-1.168.232-2.224.696-3.168.48-.96 1.136-1.712 1.968-2.256a4.978 4.978 0 012.784-.816zm0 1.152c-1.072 0-1.88.424-2.424 1.272-.528.848-.792 1.904-.792 3.168 0 1.44.288 2.656.864 3.648.592.992 1.432 1.488 2.52 1.488s1.88-.408 2.376-1.224c.496-.832.744-1.888.744-3.168 0-1.424-.28-2.64-.84-3.648-.544-1.024-1.36-1.536-2.448-1.536zm13.274-1.128c.88 0 1.704.232 2.472.696.768.448 1.384 1.096 1.848 1.944.464.832.696 1.8.696 2.904 0 1.232-.272 2.336-.816 3.312a5.918 5.918 0 01-2.136 2.256 5.453 5.453 0 01-2.856.792c-.944 0-1.792-.208-2.544-.624v3.36c0 .608-.024 1.056-.072 1.344l1.368-.048v1.176h-4.776v-.936h.024c.416.016.712-.072.888-.264.192-.176.304-.424.336-.744.032-.304.056-.808.072-1.512l.024-10.536c0-.56.024-.992.072-1.296l-1.56.096v-1.2h.024c.656 0 1.16-.024 1.512-.072.352-.064.592-.128.72-.192a1.98 1.98 0 00.432-.336h.816c.048.56.08.912.096 1.056a5.398 5.398 0 011.56-.84 5.182 5.182 0 011.8-.336zm-.84 10.728c1.008 0 1.808-.44 2.4-1.32.608-.896.912-2.064.912-3.504 0-1.28-.272-2.36-.816-3.24-.544-.88-1.368-1.32-2.472-1.32-.464 0-.92.112-1.368.336-.432.208-.808.48-1.128.816.016.112.024.6.024 1.464l-.024 5.976a4.14 4.14 0 002.472.792zm18.206-1.488a5.491 5.491 0 01-2.28 1.992c-.944.448-1.856.672-2.736.672-1.04 0-1.984-.24-2.832-.72-.832-.496-1.496-1.192-1.992-2.088-.48-.912-.72-1.952-.72-3.12 0-1.04.24-2.016.72-2.928a5.773 5.773 0 012.04-2.208c.88-.56 1.864-.84 2.952-.84.88 0 1.672.192 2.376.576.704.384 1.256.96 1.656 1.728.416.768.616 1.704.6 2.808h-.024l-7.824.12h.024c.016 1.68.312 2.976.888 3.888.576.912 1.464 1.368 2.664 1.368.704 0 1.408-.176 2.112-.528.72-.352 1.256-.784 1.608-1.296h.048l.72.576zm-4.824-8.112c-.848 0-1.536.232-2.064.696-.512.464-.864 1.2-1.056 2.208h5.4c-.016-.816-.216-1.504-.6-2.064-.368-.56-.928-.84-1.68-.84zm13.673-1.128c.464 0 .856.128 1.176.384.336.256.504.632.504 1.128 0 .256-.104.52-.312.792-.208.272-.496.408-.864.408-.336 0-.624-.12-.864-.36a1.278 1.278 0 01-.336-.864c-.528.016-1.056.24-1.584.672-.512.416-.944.952-1.296 1.608v5.328c0 .592-.024 1.032-.072 1.32l1.392-.048v1.176h-4.8v-.936h.024c.416.016.712-.064.888-.24.192-.192.304-.44.336-.744.032-.32.048-.832.048-1.536v-4.968c0-.56.024-.992.072-1.296l-1.56.072v-1.176h.816c.56 0 .96-.048 1.2-.144.24-.096.472-.248.696-.456h.792c.064.512.104 1.144.12 1.896a5.783 5.783 0 011.608-1.416c.656-.4 1.328-.6 2.016-.6z" fill="#333"/><path stroke="#000" d="M5 88.5h290"/><path d="M23.12 64.08c.213.533.44 1.2.68 2 .24.773.387 1.427.44 1.96.88-.08 1.653-.12 2.32-.12V71H15.8v-2.64c1.28 0 1.92-.533 1.92-1.6 0-.533-.147-1.173-.44-1.92l-.8-2.2-8.68.16-.64 1.88c-.08.213-.267.693-.56 1.44a20.818 20.818 0 01-.72 1.8c.853-.08 1.8-.12 2.84-.12V71H.16v-2.76c.693 0 1.267-.2 1.72-.6.48-.4.853-.88 1.12-1.44.267-.587.6-1.427 1-2.52l7.8-21.4h2.8l8.52 21.8zM12.08 49.32c-.427 1.92-.92 3.68-1.48 5.28l-1.8 5.2h6.68l-1.84-5c-.773-2.187-1.28-4.013-1.52-5.48h-.04zm24.799 2.92c4.746 0 7.12 2.32 7.12 6.96l-.04 5.96c0 1.147-.054 2.213-.16 3.2a26.99 26.99 0 012.52-.12V71h-7.28c-.054-.32-.107-.88-.16-1.68h-.04c-1.547 1.52-3.44 2.28-5.68 2.28-1.627 0-2.907-.453-3.84-1.36-.934-.907-1.4-2.067-1.4-3.48 0-2.133 1.04-3.747 3.12-4.84 2.106-1.12 4.64-1.747 7.6-1.88v-1.88c0-2.213-.894-3.32-2.68-3.32-.507 0-1 .093-1.48.28-.48.187-.88.44-1.2.76.293.347.44.8.44 1.36 0 .587-.214 1.12-.64 1.6-.427.453-1.04.68-1.84.68-.774 0-1.387-.227-1.84-.68-.427-.48-.64-1.08-.64-1.8 0-.933.36-1.76 1.08-2.48.72-.747 1.693-1.32 2.92-1.72 1.253-.4 2.626-.6 4.12-.6zm1.72 10.4c-1.52.133-2.774.507-3.76 1.12-.987.587-1.48 1.36-1.48 2.32 0 .64.213 1.12.64 1.44.426.32.946.48 1.56.48 1.173 0 2.186-.427 3.04-1.28v-4.08zm23.314-10.4c.96 0 1.747.253 2.36.76.64.507.96 1.253.96 2.24 0 .667-.227 1.267-.68 1.8-.427.507-1.066.76-1.92.76-.666 0-1.253-.16-1.76-.48-.48-.32-.76-.867-.84-1.64-.693 0-1.427.4-2.2 1.2-.773.8-1.28 1.573-1.52 2.32v5.96c0 1.147-.053 2.213-.16 3.2.8-.08 1.64-.12 2.52-.12V71h-10.12v-2.36c.96 0 1.574-.253 1.84-.76.294-.533.44-1.36.44-2.48v-6.12c0-1.093.053-2.12.16-3.08l-2.68.12v-2.76c1.6 0 2.893-.107 3.88-.32 1.014-.24 1.694-.507 2.04-.8h1.88c.107.693.16 1.747.16 3.16h.08c1.76-2.24 3.614-3.36 5.56-3.36zm14.516 0c1.84 0 3.493.387 4.96 1.16 1.493.747 2.653 1.827 3.48 3.24.853 1.413 1.28 3.067 1.28 4.96 0 2-.414 3.76-1.24 5.28a8.547 8.547 0 01-3.4 3.48c-1.44.827-3.094 1.24-4.96 1.24-1.867 0-3.547-.373-5.04-1.12-1.494-.773-2.667-1.853-3.52-3.24-.854-1.413-1.28-3.053-1.28-4.92 0-1.973.44-3.72 1.32-5.24.88-1.52 2.053-2.707 3.52-3.56 1.493-.853 3.12-1.28 4.88-1.28zm0 2.56c-1.414 0-2.44.627-3.08 1.88-.64 1.253-.96 2.8-.96 4.64 0 2.107.346 3.92 1.04 5.44.693 1.493 1.76 2.24 3.2 2.24 2.533 0 3.8-2.173 3.8-6.52 0-2.08-.32-3.88-.96-5.4-.64-1.52-1.654-2.28-3.04-2.28zm25.874-2.56c2.346 0 4.013.64 5 1.92 1.013 1.253 1.52 3.293 1.52 6.12v4.88c0 1.147-.054 2.213-.16 3.2a26.98 26.98 0 012.52-.12V71h-10.08v-2.36c.986 0 1.613-.253 1.88-.76.266-.507.4-1.333.4-2.48l-.04-5.16c0-1.6-.24-2.773-.72-3.52-.48-.747-1.28-1.12-2.4-1.12-.587 0-1.213.133-1.88.4-.64.24-1.174.547-1.6.92v8.24c0 1.147-.053 2.213-.16 3.2.8-.08 1.64-.12 2.52-.12V71h-10.12v-2.36c.96 0 1.573-.253 1.84-.76.293-.533.44-1.36.44-2.48v-6.12c0-1.093.053-2.12.16-3.08l-2.68.12v-2.76c1.6 0 2.893-.107 3.88-.32 1.013-.24 1.693-.507 2.04-.8h1.88c0 .053.053.667.16 1.84h.08c.746-.56 1.653-1.04 2.72-1.44 1.093-.4 2.026-.6 2.8-.6z" fill="#333"/></svg>