<svg width="742" height="119" fill="none" xmlns="http://www.w3.org/2000/svg"><path d="M23.12 70.08c.213.533.44 1.2.68 2 .24.773.387 1.427.44 1.96.88-.08 1.653-.12 2.32-.12V77H15.8v-2.64c1.28 0 1.92-.533 1.92-1.6 0-.533-.147-1.173-.44-1.92l-.8-2.2-8.68.16-.64 1.88c-.08.213-.267.693-.56 1.44a20.818 20.818 0 01-.72 1.8c.853-.08 1.8-.12 2.84-.12V77H.16v-2.76c.693 0 1.267-.2 1.72-.6.48-.4.853-.88 1.12-1.44.267-.587.6-1.427 1-2.52l7.8-21.4h2.8l8.52 21.8zM12.08 55.32c-.427 1.92-.92 3.68-1.48 5.28l-1.8 5.2h6.68l-1.84-5c-.773-2.187-1.28-4.013-1.52-5.48h-.04zm24.799 2.92c4.746 0 7.12 2.32 7.12 6.96l-.04 5.96c0 1.147-.054 2.213-.16 3.2a26.99 26.99 0 012.52-.12V77h-7.28c-.054-.32-.107-.88-.16-1.68h-.04c-1.547 1.52-3.44 2.28-5.68 2.28-1.627 0-2.907-.453-3.84-1.36-.934-.907-1.4-2.067-1.4-3.48 0-2.133 1.04-3.747 3.12-4.84 2.106-1.12 4.64-1.747 7.6-1.88v-1.88c0-2.213-.894-3.32-2.68-3.32-.507 0-1 .093-1.48.28-.48.187-.88.44-1.2.76.293.347.44.8.44 1.36 0 .587-.214 1.12-.64 1.6-.427.453-1.04.68-1.84.68-.774 0-1.387-.227-1.84-.68-.427-.48-.64-1.08-.64-1.8 0-.933.36-1.76 1.08-2.48.72-.747 1.693-1.32 2.92-1.72 1.253-.4 2.626-.6 4.12-.6zm1.72 10.4c-1.52.133-2.774.507-3.76 1.12-.987.587-1.48 1.36-1.48 2.32 0 .64.213 1.12.64 1.44.426.32.946.48 1.56.48 1.173 0 2.186-.427 3.04-1.28v-4.08zm23.314-10.4c.96 0 1.747.253 2.36.76.64.507.96 1.253.96 2.24 0 .667-.227 1.267-.68 1.8-.427.507-1.066.76-1.92.76-.666 0-1.253-.16-1.76-.48-.48-.32-.76-.867-.84-1.64-.693 0-1.427.4-2.2 1.2-.773.8-1.28 1.573-1.52 2.32v5.96c0 1.147-.053 2.213-.16 3.2.8-.08 1.64-.12 2.52-.12V77h-10.12v-2.36c.96 0 1.574-.253 1.84-.76.294-.533.44-1.36.44-2.48v-6.12c0-1.093.053-2.12.16-3.08l-2.68.12v-2.76c1.6 0 2.893-.107 3.88-.32 1.014-.24 1.694-.507 2.04-.8h1.88c.107.693.16 1.747.16 3.16h.08c1.76-2.24 3.614-3.36 5.56-3.36zm14.516 0c1.84 0 3.493.387 4.96 1.16 1.493.747 2.653 1.827 3.48 3.24.853 1.413 1.28 3.067 1.28 4.96 0 2-.414 3.76-1.24 5.28a8.547 8.547 0 01-3.4 3.48c-1.44.827-3.094 1.24-4.96 1.24-1.867 0-3.547-.373-5.04-1.12-1.494-.773-2.667-1.853-3.52-3.24-.854-1.413-1.28-3.053-1.28-4.92 0-1.973.44-3.72 1.32-5.24.88-1.52 2.053-2.707 3.52-3.56 1.493-.853 3.12-1.28 4.88-1.28zm0 2.56c-1.414 0-2.44.627-3.08 1.88-.64 1.253-.96 2.8-.96 4.64 0 2.107.346 3.92 1.04 5.44.693 1.493 1.76 2.24 3.2 2.24 2.533 0 3.8-2.173 3.8-6.52 0-2.08-.32-3.88-.96-5.4-.64-1.52-1.654-2.28-3.04-2.28zm25.874-2.56c2.346 0 4.013.64 5 1.92 1.013 1.253 1.52 3.293 1.52 6.12v4.88c0 1.147-.054 2.213-.16 3.2a26.98 26.98 0 012.52-.12V77h-10.08v-2.36c.986 0 1.613-.253 1.88-.76.266-.507.4-1.333.4-2.48l-.04-5.16c0-1.6-.24-2.773-.72-3.52-.48-.747-1.28-1.12-2.4-1.12-.587 0-1.213.133-1.88.4-.64.24-1.174.547-1.6.92v8.24c0 1.147-.053 2.213-.16 3.2.8-.08 1.64-.12 2.52-.12V77h-10.12v-2.36c.96 0 1.573-.253 1.84-.76.293-.533.44-1.36.44-2.48v-6.12c0-1.093.053-2.12.16-3.08l-2.68.12v-2.76c1.6 0 2.893-.107 3.88-.32 1.013-.24 1.693-.507 2.04-.8h1.88c0 .053.053.667.16 1.84h.08c.746-.56 1.653-1.04 2.72-1.44 1.093-.4 2.026-.6 2.8-.6zm39.577 13.2c-1.413 2.107-2.56 3.68-3.44 4.72v.04l7.32.16c1.573.027 2.8-.427 3.68-1.36.907-.96 1.36-2.48 1.36-4.56h2.64L153.2 79h-20.6v-3l11.96-18.24c1.173-1.787 2.107-3.093 2.8-3.92v-.04l-6.84-.2c-1.573-.053-2.813.4-3.72 1.36-.907.96-1.36 2.48-1.36 4.56h-2.64l.24-8.52h20.36v3l-11.52 17.44zm24.221-11.2c1.84 0 3.493.387 4.96 1.16 1.493.747 2.653 1.827 3.48 3.24.853 1.413 1.28 3.067 1.28 4.96 0 2-.414 3.76-1.24 5.28a8.55 8.55 0 01-3.4 3.48c-1.44.827-3.094 1.24-4.96 1.24-1.867 0-3.547-.373-5.04-1.12-1.494-.773-2.667-1.853-3.52-3.24-.854-1.413-1.28-3.053-1.28-4.92 0-1.973.44-3.72 1.32-5.24.88-1.52 2.053-2.707 3.52-3.56 1.493-.853 3.12-1.28 4.88-1.28zm0 2.56c-1.414 0-2.44.627-3.08 1.88-.64 1.253-.96 2.8-.96 4.64 0 2.107.346 3.92 1.04 5.44.693 1.493 1.76 2.24 3.2 2.24 2.533 0 3.8-2.173 3.8-6.52 0-2.08-.32-3.88-.96-5.4-.64-1.52-1.654-2.28-3.04-2.28zm37.034-2.56c2.133 0 3.72.587 4.76 1.76 1.04 1.147 1.56 3.08 1.56 5.8v5.36c0 1.147-.054 2.213-.16 3.2.8-.08 1.64-.12 2.52-.12V79h-9.76v-2.36c.8 0 1.32-.253 1.56-.76.24-.533.36-1.36.36-2.48v-5.56c-.027-1.493-.294-2.56-.8-3.2-.48-.64-1.187-.987-2.12-1.04-1.2 0-2.347.4-3.44 1.2.24.987.36 2.147.36 3.48v4.88c0 1.147-.054 2.213-.16 3.2.8-.08 1.64-.12 2.52-.12V79h-9.96v-2.36c.906 0 1.48-.253 1.72-.76.266-.533.4-1.36.4-2.48l-.04-5.68c0-1.52-.24-2.587-.72-3.2-.454-.613-1.134-.92-2.04-.92-1.147 0-2.24.44-3.28 1.32v8.24c0 1.147-.054 2.213-.16 3.2.8-.08 1.573-.12 2.32-.12V79h-9.88v-2.36c.96 0 1.573-.253 1.84-.76.266-.507.4-1.333.4-2.48v-6.12c0-1.093.053-2.12.16-3.08l-2.68.12v-2.76c1.6 0 2.906-.107 3.92-.32 1.013-.24 1.68-.507 2-.8h1.88c0 .053.053.667.16 1.84h.08c.8-.587 1.693-1.067 2.68-1.44 1.013-.4 2-.6 2.96-.6 2.266 0 3.853.8 4.76 2.4a12.01 12.01 0 013.08-1.72c1.12-.453 2.186-.68 3.2-.68zm17.268 1.96c1.573-1.307 3.306-1.96 5.2-1.96 1.546 0 2.906.387 4.08 1.16 1.173.747 2.08 1.813 2.72 3.2.666 1.387 1 3 1 4.84 0 1.947-.387 3.693-1.16 5.24-.747 1.547-1.827 2.76-3.24 3.64-1.414.853-3.067 1.28-4.96 1.28-.907 0-1.867-.173-2.88-.52-1.014-.32-1.92-.88-2.721-1.68h-.039l-1.12 1.6h-2.32V58.44c0-1.387.04-2.44.12-3.16l-2.681.12v-2.76c1.601 0 2.907-.107 3.921-.32 1.013-.24 1.68-.493 2-.76h2.08V62.2zm3.24 1.32c-.667 0-1.294.147-1.88.44a3.5 3.5 0 00-1.36 1.12v8.48c0 1.173.293 2.027.88 2.56.586.533 1.28.8 2.08.8 1.546 0 2.653-.653 3.32-1.96.693-1.307 1.04-2.96 1.04-4.96 0-1.813-.347-3.347-1.04-4.6-.667-1.253-1.68-1.88-3.04-1.88zm21.189-3.28c4.747 0 7.12 2.32 7.12 6.96l-.04 5.96c0 1.147-.053 2.213-.16 3.2a26.98 26.98 0 012.52-.12V79h-7.28c-.053-.32-.107-.88-.16-1.68h-.04c-1.547 1.52-3.44 2.28-5.68 2.28-1.627 0-2.907-.453-3.84-1.36-.933-.907-1.4-2.067-1.4-3.48 0-2.133 1.04-3.747 3.12-4.84 2.107-1.12 4.64-1.747 7.6-1.88v-1.88c0-2.213-.893-3.32-2.68-3.32-.507 0-1 .093-1.48.28-.48.187-.88.44-1.2.76.293.347.44.8.44 1.36 0 .587-.213 1.12-.64 1.6-.427.453-1.04.68-1.84.68-.773 0-1.387-.227-1.84-.68-.427-.48-.64-1.08-.64-1.8 0-.933.36-1.76 1.08-2.48.72-.747 1.693-1.32 2.92-1.72 1.253-.4 2.627-.6 4.12-.6zm1.72 10.4c-1.52.133-2.773.507-3.76 1.12-.987.587-1.48 1.36-1.48 2.32 0 .64.213 1.12.64 1.44.427.32.947.48 1.56.48 1.173 0 2.187-.427 3.04-1.28v-4.08zm19.634-10.4c1.547 0 2.88.24 4 .72 1.12.453 1.96 1.067 2.52 1.84.587.747.88 1.547.88 2.4 0 .773-.24 1.427-.72 1.96-.48.533-1.133.8-1.96.8-.853 0-1.493-.24-1.92-.72-.4-.48-.6-1.027-.6-1.64 0-.24.04-.507.12-.8.08-.293.187-.56.32-.8a1.842 1.842 0 00-1.12-.92 4.048 4.048 0 00-1.48-.28c-1.333 0-2.413.56-3.24 1.68-.8 1.12-1.2 2.707-1.2 4.76 0 2.027.4 3.707 1.2 5.04.827 1.307 2.12 2 3.88 2.08 1.067.027 2.12-.213 3.16-.72a7.757 7.757 0 002.64-2.08l1.76 1.64c-1.28 1.653-2.653 2.8-4.12 3.44a11.57 11.57 0 01-4.68.96c-1.76 0-3.36-.373-4.8-1.12a8.642 8.642 0 01-3.44-3.2c-.826-1.413-1.24-3.067-1.24-4.96 0-1.84.427-3.52 1.28-5.04a9.634 9.634 0 013.56-3.68c1.547-.907 3.28-1.36 5.2-1.36zm19.399 7.88l2.76-3c.747-.8 1.254-1.307 1.52-1.52v-.04l-2.04.04v-2.8h8.64v2.36c-1.226.133-2.266.453-3.12.96a10.425 10.425 0 00-2.32 1.88l-2.48 2.6v.04c.4.187.787.453 1.16.8.374.32.827.8 1.36 1.44l2.56 3.2c.64.773 1.214 1.4 1.72 1.88a2.76 2.76 0 001.84.68V79h-4.44a3.246 3.246 0 01-2.04-.68c-.586-.48-1.333-1.307-2.24-2.48-.693-.88-1.613-2.12-2.76-3.72l-1.08-1.44-.88.04v2.44c0 1.147-.053 2.213-.16 3.2.8-.08 1.627-.12 2.48-.12V79h-10.12v-2.36c.987 0 1.614-.253 1.88-.76.294-.533.44-1.36.44-2.48V58.44c0-1.147.054-2.2.16-3.16l-2.72.12v-2.76c1.6 0 2.907-.107 3.92-.32 1.014-.24 1.68-.493 2-.76h2.12v16.56h1.84zm114.879-8.16h-5.208V77h2.232v-6.216h2.976c3.552 0 5.856-2.328 5.856-5.4 0-3.072-2.304-5.424-5.856-5.424zm0 8.76h-2.976v-6.672h2.976c2.352 0 3.648 1.44 3.648 3.336s-1.296 3.336-3.648 3.336zm8.378 8.28h2.064v-5.952c0-2.808 1.656-4.128 3.168-4.128.408 0 .744.048 1.128.192v-2.136a4.276 4.276 0 00-.936-.096c-1.392 0-2.88.912-3.36 2.448V65h-2.064v12zm19.96-6c0-3.456-2.664-6.24-6.264-6.24-3.624 0-6.288 2.784-6.288 6.24 0 3.456 2.664 6.24 6.288 6.24 3.6 0 6.264-2.784 6.264-6.24zm-10.44 0c0-2.4 1.68-4.32 4.176-4.32 2.496 0 4.152 1.92 4.152 4.32 0 2.4-1.656 4.32-4.152 4.32-2.496 0-4.176-1.92-4.176-4.32zm12.466 0c0 3.432 2.52 6.24 5.88 6.24 1.8 0 3.432-.936 4.224-2.088V77h2.064V59h-2.064v7.848c-.792-1.152-2.424-2.088-4.224-2.088-3.36 0-5.88 2.808-5.88 6.24zm10.272 0c0 2.424-1.656 4.344-4.08 4.344-2.424 0-4.104-1.92-4.104-4.344 0-2.424 1.68-4.344 4.104-4.344 2.424 0 4.08 1.92 4.08 4.344zm5.614 1.368c0 2.976 1.776 4.872 4.416 4.872 1.512 0 2.904-.696 3.696-2.088V77h2.064V65h-2.064v5.952c0 2.76-1.464 4.392-3.336 4.392-1.656 0-2.712-1.272-2.712-3.288V65h-2.064v7.368zm24.962 1.656l-1.8-1.008c-.672 1.368-2.016 2.304-3.744 2.304-2.496 0-4.2-1.92-4.2-4.32 0-2.4 1.704-4.32 4.2-4.32 1.728 0 3.072.936 3.744 2.304l1.8-1.008c-1.056-1.92-3.072-3.216-5.544-3.216-3.624 0-6.288 2.76-6.288 6.24 0 3.48 2.664 6.24 6.288 6.24 2.472 0 4.488-1.296 5.544-3.216zm9.178 2.808v-1.848c-.384.144-.96.24-1.464.24-1.296 0-1.992-.504-1.992-2.04v-6.288h3.456V65h-3.456v-3.336h-2.064V65h-2.544v1.896h2.544v6.552c0 2.496 1.584 3.672 3.672 3.672.744 0 1.344-.12 1.848-.288zm7.49-5.832c0 3.432 2.52 6.24 5.88 6.24 1.8 0 3.432-.936 4.224-2.088V77h2.064V59h-2.064v7.848c-.792-1.152-2.424-2.088-4.224-2.088-3.36 0-5.88 2.808-5.88 6.24zm10.272 0c0 2.424-1.656 4.344-4.08 4.344-2.424 0-4.104-1.92-4.104-4.344 0-2.424 1.68-4.344 4.104-4.344 2.424 0 4.08 1.92 4.08 4.344zm4.845 0c0 3.528 2.496 6.24 6.216 6.24 2.496 0 4.32-1.104 5.4-2.856l-1.632-1.128c-.744 1.272-1.896 2.088-3.744 2.088-2.376 0-4.08-1.68-4.152-3.936h9.84c.024-.264.024-.408.024-.624-.024-3.84-2.568-6.024-5.712-6.024-3.648 0-6.24 2.736-6.24 6.24zm6.168-4.416c1.824 0 3.384 1.176 3.672 3.144h-7.608c.384-1.992 2.136-3.144 3.936-3.144zm16.513 7.056c0-1.824-1.2-2.904-3.264-3.528l-1.32-.408c-1.32-.408-1.704-1.008-1.704-1.728 0-.888.984-1.44 1.992-1.44 1.152 0 1.968.6 2.496 1.368l1.536-1.056c-.792-1.344-2.184-2.088-3.96-2.088-2.304 0-4.104 1.224-4.128 3.288 0 1.68 1.032 2.928 3 3.504l1.2.384c1.56.48 2.088 1.008 2.088 1.872 0 1.032-.936 1.608-2.088 1.608-1.32 0-2.616-.672-3.048-1.896l-1.68.936c.72 1.872 2.568 2.784 4.704 2.784 2.4 0 4.176-1.296 4.176-3.6zm5.501-13.32c0-.792-.624-1.464-1.44-1.464s-1.488.672-1.488 1.464c0 .816.672 1.464 1.488 1.464s1.44-.648 1.44-1.464zM529.147 77h2.064V65h-2.064v12zm17.161-.696V65h-2.064v1.848c-.816-1.2-2.4-2.088-4.176-2.088-3.336 0-5.88 2.688-5.88 6.096 0 3.432 2.544 6.12 5.88 6.12 1.776 0 3.36-.912 4.176-2.112v1.368c0 2.88-1.968 4.152-4.008 4.152-1.848 0-3.24-.792-4.2-2.016l-1.44 1.44c1.032 1.344 3.048 2.448 5.64 2.448 3.432 0 6.072-1.944 6.072-5.952zM536.3 70.856c0-2.4 1.656-4.2 4.056-4.2 2.4 0 4.056 1.8 4.056 4.2 0 2.424-1.656 4.2-4.056 4.2-2.4 0-4.056-1.776-4.056-4.2zM550.194 77h2.064v-5.952c0-2.808 1.536-4.392 3.48-4.392 1.68 0 2.832 1.248 2.832 3.264V77h2.04v-7.392c0-2.976-1.848-4.848-4.536-4.848-1.56 0-3 .672-3.816 2.088V65h-2.064v12zm25.274-17.4c1.28 0 2.288.328 3.024.984.752.64 1.128 1.544 1.128 2.712 0 1.008-.328 1.864-.984 2.568-.64.704-1.456 1.344-2.448 1.92l4.632 4.464a6.23 6.23 0 001.008-1.704c.272-.656.496-1.36.672-2.112h2.136a18.119 18.119 0 01-.96 2.856 8.152 8.152 0 01-1.488 2.304L585.692 77h-2.856l-2.088-2.016a9.733 9.733 0 01-2.52 1.632c-.928.416-2.056.624-3.384.624-1.648 0-2.96-.408-3.936-1.224-.976-.816-1.464-1.976-1.464-3.48 0-1.232.328-2.216.984-2.952.672-.752 1.576-1.448 2.712-2.088a18.377 18.377 0 01-1.44-1.848c-.432-.656-.648-1.424-.648-2.304 0-1.184.392-2.104 1.176-2.76.8-.656 1.88-.984 3.24-.984zm-.072 1.728c-.672 0-1.224.176-1.656.528-.416.352-.624.84-.624 1.464 0 .576.152 1.112.456 1.608.304.48.744 1.016 1.32 1.608.944-.544 1.616-1.056 2.016-1.536a2.576 2.576 0 00.624-1.704c0-.576-.192-1.048-.576-1.416-.384-.368-.904-.552-1.56-.552zm-.984 7.488c-.864.512-1.544 1.032-2.04 1.56-.48.528-.72 1.224-.72 2.088 0 .88.296 1.584.888 2.112.592.528 1.384.792 2.376.792 1.024 0 1.904-.168 2.64-.504.736-.336 1.352-.736 1.848-1.2l-4.992-4.848zM592.547 71c0 3.432 2.52 6.24 5.88 6.24 1.8 0 3.432-.936 4.224-2.088V77h2.064V59h-2.064v7.848c-.792-1.152-2.424-2.088-4.224-2.088-3.36 0-5.88 2.808-5.88 6.24zm10.272 0c0 2.424-1.656 4.344-4.08 4.344-2.424 0-4.104-1.92-4.104-4.344 0-2.424 1.68-4.344 4.104-4.344 2.424 0 4.08 1.92 4.08 4.344zm4.845 0c0 3.528 2.496 6.24 6.216 6.24 2.496 0 4.32-1.104 5.4-2.856l-1.632-1.128c-.744 1.272-1.896 2.088-3.744 2.088-2.376 0-4.08-1.68-4.152-3.936h9.84c.024-.264.024-.408.024-.624-.024-3.84-2.568-6.024-5.712-6.024-3.648 0-6.24 2.736-6.24 6.24zm6.168-4.416c1.824 0 3.384 1.176 3.672 3.144h-7.608c.384-1.992 2.136-3.144 3.936-3.144zM626.102 77h1.728l5.544-12h-2.304l-4.104 9.072L622.862 65h-2.304l5.544 12zm8.164-6c0 3.528 2.496 6.24 6.216 6.24 2.496 0 4.32-1.104 5.4-2.856l-1.632-1.128c-.744 1.272-1.896 2.088-3.744 2.088-2.376 0-4.08-1.68-4.152-3.936h9.84c.024-.264.024-.408.024-.624-.024-3.84-2.568-6.024-5.712-6.024-3.648 0-6.24 2.736-6.24 6.24zm6.168-4.416c1.824 0 3.384 1.176 3.672 3.144h-7.608c.384-1.992 2.136-3.144 3.936-3.144zM649.147 77h2.064V59h-2.064v18zm17.569-6c0-3.456-2.664-6.24-6.264-6.24-3.624 0-6.288 2.784-6.288 6.24 0 3.456 2.664 6.24 6.288 6.24 3.6 0 6.264-2.784 6.264-6.24zm-10.44 0c0-2.4 1.68-4.32 4.176-4.32 2.496 0 4.152 1.92 4.152 4.32 0 2.4-1.656 4.32-4.152 4.32-2.496 0-4.176-1.92-4.176-4.32zm13.402 11.016h2.064v-6.864c.792 1.152 2.424 2.088 4.224 2.088 3.336 0 5.88-2.808 5.88-6.24 0-3.432-2.544-6.24-5.88-6.24-1.8 0-3.432.936-4.224 2.088V65h-2.064v17.016zM679.734 71c0 2.424-1.656 4.344-4.08 4.344-2.424 0-4.08-1.92-4.08-4.344 0-2.424 1.656-4.344 4.08-4.344 2.424 0 4.08 1.92 4.08 4.344zm5.085 6h2.064v-5.952c0-2.712 1.368-4.392 3.312-4.392 1.56 0 2.352 1.344 2.352 3.288V77h2.064v-5.952c0-2.712 1.344-4.392 3.288-4.392 1.56 0 2.376 1.344 2.376 3.288V77h2.064v-7.368c0-2.928-1.584-4.872-4.2-4.872-1.776 0-3.288.984-3.936 2.568-.6-1.584-1.896-2.568-3.696-2.568-1.608 0-2.928.816-3.624 2.088V65h-2.064v12zm20.298-6c0 3.528 2.496 6.24 6.216 6.24 2.496 0 4.32-1.104 5.4-2.856l-1.632-1.128c-.744 1.272-1.896 2.088-3.744 2.088-2.376 0-4.08-1.68-4.152-3.936h9.84c.024-.264.024-.408.024-.624-.024-3.84-2.568-6.024-5.712-6.024-3.648 0-6.24 2.736-6.24 6.24zm6.168-4.416c1.824 0 3.384 1.176 3.672 3.144h-7.608c.384-1.992 2.136-3.144 3.936-3.144zM719.999 77h2.064v-5.952c0-2.808 1.536-4.392 3.48-4.392 1.68 0 2.832 1.248 2.832 3.264V77h2.04v-7.392c0-2.976-1.848-4.848-4.536-4.848-1.56 0-3 .672-3.816 2.088V65h-2.064v12zm20.496-.168v-1.848c-.384.144-.96.24-1.464.24-1.296 0-1.992-.504-1.992-2.04v-6.288h3.456V65h-3.456v-3.336h-2.064V65h-2.544v1.896h2.544v6.552c0 2.496 1.584 3.672 3.672 3.672.744 0 1.344-.12 1.848-.288z" fill="#333"/><path d="M334.68 81.4h5.44l15.44-32.8h-5.44l-15.44 32.8z" fill="#30E74D"/></svg>