<svg enable-background="new 0 0 56.693 56.693" height="56.693" viewBox="0 0 56.693 56.693" width="56.693" xmlns="http://www.w3.org/2000/svg"><path d="m38.512 24.392v-3.947-.59l-.59.002-3.947.014.015 4.536z"/><path d="m28.225 34.868c2.598 0 4.713-2.113 4.713-4.711 0-1.025-.334-1.975-.893-2.748-.855-1.186-2.248-1.965-3.82-1.965s-2.963.779-3.82 1.965c-.559.773-.891 1.723-.891 2.748 0 2.598 2.113 4.711 4.711 4.711z"/><path d="m28.348 5.158c-13.6 0-24.625 11.023-24.625 24.623s11.025 24.625 24.625 24.625c13.598 0 24.623-11.025 24.623-24.625s-11.026-24.623-24.623-24.623zm13.263 22.251v10.961c0 2.852-2.322 5.172-5.174 5.172h-16.425c-2.853 0-5.173-2.32-5.173-5.172v-10.961-5.464c0-2.853 2.32-5.173 5.173-5.173h16.425c2.852 0 5.174 2.32 5.174 5.173z"/><path d="m35.545 30.157c0 4.035-3.283 7.32-7.32 7.32s-7.318-3.285-7.318-7.32c0-.973.193-1.898.537-2.748h-3.996v10.961c0 1.414 1.15 2.564 2.564 2.564h16.425c1.414 0 2.564-1.15 2.564-2.564v-10.961h-3.998c.347.85.542 1.776.542 2.748z"/></svg>
