<svg width="742" height="119" viewBox="0 0 742 119" fill="none" xmlns="http://www.w3.org/2000/svg">
<path d="M23.12 70.08C23.3333 70.6133 23.56 71.28 23.8 72.08C24.04 72.8533 24.1867 73.5067 24.24 74.04C25.12 73.96 25.8933 73.92 26.56 73.92V77H15.8V74.36C17.08 74.36 17.72 73.8267 17.72 72.76C17.72 72.2267 17.5733 71.5867 17.28 70.84L16.48 68.64L7.8 68.8L7.16 70.68C7.08 70.8933 6.89333 71.3733 6.6 72.12C6.33333 72.8667 6.09333 73.4667 5.88 73.92C6.73333 73.84 7.68 73.8 8.72 73.8V77H0.16V74.24C0.853333 74.24 1.42667 74.04 1.88 73.64C2.36 73.24 2.73333 72.76 3 72.2C3.26667 71.6133 3.6 70.7733 4 69.68L11.8 48.28H14.6L23.12 70.08ZM12.08 55.32C11.6533 57.24 11.16 59 10.6 60.6L8.8 65.8H15.48L13.64 60.8C12.8667 58.6133 12.36 56.7867 12.12 55.32H12.08ZM36.8788 58.24C41.6254 58.24 43.9988 60.56 43.9988 65.2L43.9588 71.16C43.9588 72.3067 43.9054 73.3733 43.7988 74.36C44.6521 74.28 45.4921 74.24 46.3188 74.24V77H39.0388C38.9854 76.68 38.9321 76.12 38.8788 75.32H38.8388C37.2921 76.84 35.3988 77.6 33.1588 77.6C31.5321 77.6 30.2521 77.1467 29.3188 76.24C28.3854 75.3333 27.9188 74.1733 27.9188 72.76C27.9188 70.6267 28.9588 69.0133 31.0388 67.92C33.1454 66.8 35.6788 66.1733 38.6388 66.04V64.16C38.6388 61.9467 37.7454 60.84 35.9588 60.84C35.4521 60.84 34.9588 60.9333 34.4788 61.12C33.9988 61.3067 33.5988 61.56 33.2788 61.88C33.5721 62.2267 33.7188 62.68 33.7188 63.24C33.7188 63.8267 33.5054 64.36 33.0788 64.84C32.6521 65.2933 32.0388 65.52 31.2388 65.52C30.4654 65.52 29.8521 65.2933 29.3988 64.84C28.9721 64.36 28.7588 63.76 28.7588 63.04C28.7588 62.1067 29.1188 61.28 29.8388 60.56C30.5588 59.8133 31.5321 59.24 32.7588 58.84C34.0121 58.44 35.3854 58.24 36.8788 58.24ZM38.5988 68.64C37.0788 68.7733 35.8254 69.1467 34.8388 69.76C33.8521 70.3467 33.3588 71.12 33.3588 72.08C33.3588 72.72 33.5721 73.2 33.9988 73.52C34.4254 73.84 34.9454 74 35.5588 74C36.7321 74 37.7454 73.5733 38.5988 72.72V68.64ZM61.9131 58.24C62.8731 58.24 63.6598 58.4933 64.2731 59C64.9131 59.5067 65.2331 60.2533 65.2331 61.24C65.2331 61.9067 65.0065 62.5067 64.5531 63.04C64.1265 63.5467 63.4865 63.8 62.6331 63.8C61.9665 63.8 61.3798 63.64 60.8731 63.32C60.3931 63 60.1131 62.4533 60.0331 61.68C59.3398 61.68 58.6065 62.08 57.8331 62.88C57.0598 63.68 56.5531 64.4533 56.3131 65.2V71.16C56.3131 72.3067 56.2598 73.3733 56.1531 74.36C56.9531 74.28 57.7931 74.24 58.6731 74.24V77H48.5531V74.64C49.5131 74.64 50.1265 74.3867 50.3931 73.88C50.6865 73.3467 50.8331 72.52 50.8331 71.4V65.28C50.8331 64.1867 50.8865 63.16 50.9931 62.2L48.3131 62.32V59.56C49.9131 59.56 51.2065 59.4533 52.1931 59.24C53.2065 59 53.8865 58.7333 54.2331 58.44H56.1131C56.2198 59.1333 56.2731 60.1867 56.2731 61.6H56.3531C58.1131 59.36 59.9665 58.24 61.9131 58.24ZM76.4288 58.24C78.2688 58.24 79.9221 58.6267 81.3888 59.4C82.8821 60.1467 84.0421 61.2267 84.8688 62.64C85.7221 64.0533 86.1488 65.7067 86.1488 67.6C86.1488 69.6 85.7354 71.36 84.9088 72.88C84.1088 74.3733 82.9754 75.5333 81.5088 76.36C80.0688 77.1867 78.4154 77.6 76.5488 77.6C74.6821 77.6 73.0021 77.2267 71.5088 76.48C70.0154 75.7067 68.8421 74.6267 67.9888 73.24C67.1354 71.8267 66.7088 70.1867 66.7088 68.32C66.7088 66.3467 67.1488 64.6 68.0288 63.08C68.9088 61.56 70.0821 60.3733 71.5488 59.52C73.0421 58.6667 74.6688 58.24 76.4288 58.24ZM76.4288 60.8C75.0154 60.8 73.9888 61.4267 73.3488 62.68C72.7088 63.9333 72.3888 65.48 72.3888 67.32C72.3888 69.4267 72.7354 71.24 73.4288 72.76C74.1221 74.2533 75.1888 75 76.6288 75C79.1621 75 80.4288 72.8267 80.4288 68.48C80.4288 66.4 80.1088 64.6 79.4688 63.08C78.8288 61.56 77.8154 60.8 76.4288 60.8ZM102.303 58.24C104.649 58.24 106.316 58.88 107.303 60.16C108.316 61.4133 108.823 63.4533 108.823 66.28V71.16C108.823 72.3067 108.769 73.3733 108.663 74.36C109.516 74.28 110.356 74.24 111.183 74.24V77H101.103V74.64C102.089 74.64 102.716 74.3867 102.983 73.88C103.249 73.3733 103.383 72.5467 103.383 71.4L103.343 66.24C103.343 64.64 103.103 63.4667 102.623 62.72C102.143 61.9733 101.343 61.6 100.223 61.6C99.6361 61.6 99.0095 61.7333 98.3428 62C97.7028 62.24 97.1695 62.5467 96.7428 62.92V71.16C96.7428 72.3067 96.6895 73.3733 96.5828 74.36C97.3828 74.28 98.2228 74.24 99.1028 74.24V77H88.9828V74.64C89.9428 74.64 90.5561 74.3867 90.8228 73.88C91.1161 73.3467 91.2628 72.52 91.2628 71.4V65.28C91.2628 64.1867 91.3161 63.16 91.4228 62.2L88.7428 62.32V59.56C90.3428 59.56 91.6361 59.4533 92.6228 59.24C93.6361 59 94.3161 58.7333 94.6628 58.44H96.5428C96.5428 58.4933 96.5961 59.1067 96.7028 60.28H96.7828C97.5295 59.72 98.4361 59.24 99.5028 58.84C100.596 58.44 101.529 58.24 102.303 58.24Z" fill="#333333"/>
<path d="M141.88 71.44C140.467 73.5467 139.32 75.12 138.44 76.16V76.2L145.76 76.36C147.333 76.3867 148.56 75.9333 149.44 75C150.347 74.04 150.8 72.52 150.8 70.44H153.44L153.2 79H132.6V76L144.56 57.76C145.733 55.9733 146.667 54.6667 147.36 53.84V53.8L140.52 53.6C138.947 53.5467 137.707 54 136.8 54.96C135.893 55.92 135.44 57.44 135.44 59.52H132.8L133.04 51H153.4V54L141.88 71.44ZM166.101 60.24C167.941 60.24 169.594 60.6267 171.061 61.4C172.554 62.1467 173.714 63.2267 174.541 64.64C175.394 66.0533 175.821 67.7067 175.821 69.6C175.821 71.6 175.407 73.36 174.581 74.88C173.781 76.3733 172.647 77.5333 171.181 78.36C169.741 79.1867 168.087 79.6 166.221 79.6C164.354 79.6 162.674 79.2267 161.181 78.48C159.687 77.7067 158.514 76.6267 157.661 75.24C156.807 73.8267 156.381 72.1867 156.381 70.32C156.381 68.3467 156.821 66.6 157.701 65.08C158.581 63.56 159.754 62.3733 161.221 61.52C162.714 60.6667 164.341 60.24 166.101 60.24ZM166.101 62.8C164.687 62.8 163.661 63.4267 163.021 64.68C162.381 65.9333 162.061 67.48 162.061 69.32C162.061 71.4267 162.407 73.24 163.101 74.76C163.794 76.2533 164.861 77 166.301 77C168.834 77 170.101 74.8267 170.101 70.48C170.101 68.4 169.781 66.6 169.141 65.08C168.501 63.56 167.487 62.8 166.101 62.8ZM203.135 60.24C205.268 60.24 206.855 60.8267 207.895 62C208.935 63.1467 209.455 65.08 209.455 67.8V73.16C209.455 74.3067 209.401 75.3733 209.295 76.36C210.095 76.28 210.935 76.24 211.815 76.24V79H202.055V76.64C202.855 76.64 203.375 76.3867 203.615 75.88C203.855 75.3467 203.975 74.52 203.975 73.4V67.84C203.948 66.3467 203.681 65.28 203.175 64.64C202.695 64 201.988 63.6533 201.055 63.6C199.855 63.6 198.708 64 197.615 64.8C197.855 65.7867 197.975 66.9467 197.975 68.28V73.16C197.975 74.3067 197.921 75.3733 197.815 76.36C198.615 76.28 199.455 76.24 200.335 76.24V79H190.375V76.64C191.281 76.64 191.855 76.3867 192.095 75.88C192.361 75.3467 192.495 74.52 192.495 73.4L192.455 67.72C192.455 66.2 192.215 65.1333 191.735 64.52C191.281 63.9067 190.601 63.6 189.695 63.6C188.548 63.6 187.455 64.04 186.415 64.92V73.16C186.415 74.3067 186.361 75.3733 186.255 76.36C187.055 76.28 187.828 76.24 188.575 76.24V79H178.695V76.64C179.655 76.64 180.268 76.3867 180.535 75.88C180.801 75.3733 180.935 74.5467 180.935 73.4V67.28C180.935 66.1867 180.988 65.16 181.095 64.2L178.415 64.32V61.56C180.015 61.56 181.321 61.4533 182.335 61.24C183.348 61 184.015 60.7333 184.335 60.44H186.215C186.215 60.4933 186.268 61.1067 186.375 62.28H186.455C187.255 61.6933 188.148 61.2133 189.135 60.84C190.148 60.44 191.135 60.24 192.095 60.24C194.361 60.24 195.948 61.04 196.855 62.64C197.788 61.92 198.815 61.3467 199.935 60.92C201.055 60.4667 202.121 60.24 203.135 60.24ZM220.403 62.2C221.976 60.8933 223.709 60.24 225.603 60.24C227.149 60.24 228.509 60.6267 229.683 61.4C230.856 62.1467 231.763 63.2133 232.403 64.6C233.069 65.9867 233.403 67.6 233.403 69.44C233.403 71.3867 233.016 73.1333 232.243 74.68C231.496 76.2267 230.416 77.44 229.003 78.32C227.589 79.1733 225.936 79.6 224.043 79.6C223.136 79.6 222.176 79.4267 221.163 79.08C220.149 78.76 219.243 78.2 218.442 77.4H218.403L217.283 79H214.963V58.44C214.963 57.0533 215.003 56 215.083 55.28L212.402 55.4V52.64C214.003 52.64 215.309 52.5333 216.323 52.32C217.336 52.08 218.003 51.8267 218.323 51.56H220.403V62.2ZM223.643 63.52C222.976 63.52 222.349 63.6667 221.763 63.96C221.203 64.2267 220.749 64.6 220.403 65.08V73.56C220.403 74.7333 220.696 75.5867 221.283 76.12C221.869 76.6533 222.563 76.92 223.363 76.92C224.909 76.92 226.016 76.2667 226.683 74.96C227.376 73.6533 227.723 72 227.723 70C227.723 68.1867 227.376 66.6533 226.683 65.4C226.016 64.1467 225.003 63.52 223.643 63.52ZM244.832 60.24C249.579 60.24 251.952 62.56 251.952 67.2L251.912 73.16C251.912 74.3067 251.859 75.3733 251.752 76.36C252.605 76.28 253.445 76.24 254.272 76.24V79H246.992C246.939 78.68 246.885 78.12 246.832 77.32H246.792C245.245 78.84 243.352 79.6 241.112 79.6C239.485 79.6 238.205 79.1467 237.272 78.24C236.339 77.3333 235.872 76.1733 235.872 74.76C235.872 72.6267 236.912 71.0133 238.992 69.92C241.099 68.8 243.632 68.1733 246.592 68.04V66.16C246.592 63.9467 245.699 62.84 243.912 62.84C243.405 62.84 242.912 62.9333 242.432 63.12C241.952 63.3067 241.552 63.56 241.232 63.88C241.525 64.2267 241.672 64.68 241.672 65.24C241.672 65.8267 241.459 66.36 241.032 66.84C240.605 67.2933 239.992 67.52 239.192 67.52C238.419 67.52 237.805 67.2933 237.352 66.84C236.925 66.36 236.712 65.76 236.712 65.04C236.712 64.1067 237.072 63.28 237.792 62.56C238.512 61.8133 239.485 61.24 240.712 60.84C241.965 60.44 243.339 60.24 244.832 60.24ZM246.552 70.64C245.032 70.7733 243.779 71.1467 242.792 71.76C241.805 72.3467 241.312 73.12 241.312 74.08C241.312 74.72 241.525 75.2 241.952 75.52C242.379 75.84 242.899 76 243.512 76C244.685 76 245.699 75.5733 246.552 74.72V70.64ZM266.186 60.24C267.733 60.24 269.066 60.48 270.186 60.96C271.306 61.4133 272.146 62.0267 272.706 62.8C273.293 63.5467 273.586 64.3467 273.586 65.2C273.586 65.9733 273.346 66.6267 272.866 67.16C272.386 67.6933 271.733 67.96 270.906 67.96C270.053 67.96 269.413 67.72 268.986 67.24C268.586 66.76 268.386 66.2133 268.386 65.6C268.386 65.36 268.426 65.0933 268.506 64.8C268.586 64.5067 268.693 64.24 268.826 64C268.586 63.5467 268.213 63.24 267.706 63.08C267.226 62.8933 266.733 62.8 266.226 62.8C264.893 62.8 263.813 63.36 262.986 64.48C262.186 65.6 261.786 67.1867 261.786 69.24C261.786 71.2667 262.186 72.9467 262.986 74.28C263.813 75.5867 265.106 76.28 266.866 76.36C267.933 76.3867 268.986 76.1467 270.026 75.64C271.066 75.1333 271.946 74.44 272.666 73.56L274.426 75.2C273.146 76.8533 271.773 78 270.306 78.64C268.84 79.28 267.28 79.6 265.626 79.6C263.866 79.6 262.266 79.2267 260.826 78.48C259.386 77.7333 258.24 76.6667 257.386 75.28C256.56 73.8667 256.146 72.2133 256.146 70.32C256.146 68.48 256.573 66.8 257.426 65.28C258.28 63.7333 259.466 62.5067 260.986 61.6C262.533 60.6933 264.266 60.24 266.186 60.24ZM285.585 68.12L288.345 65.12C289.092 64.32 289.599 63.8133 289.865 63.6V63.56L287.825 63.6V60.8H296.465V63.16C295.239 63.2933 294.199 63.6133 293.345 64.12C292.492 64.6267 291.719 65.2533 291.025 66L288.545 68.6V68.64C288.945 68.8267 289.332 69.0933 289.705 69.44C290.079 69.76 290.532 70.24 291.065 70.88L293.625 74.08C294.265 74.8533 294.839 75.48 295.345 75.96C295.879 76.4133 296.492 76.64 297.185 76.64V79H292.745C291.972 79 291.292 78.7733 290.705 78.32C290.119 77.84 289.372 77.0133 288.465 75.84C287.772 74.96 286.852 73.72 285.705 72.12L284.625 70.68L283.745 70.72V73.16C283.745 74.3067 283.692 75.3733 283.585 76.36C284.385 76.28 285.212 76.24 286.065 76.24V79H275.945V76.64C276.932 76.64 277.559 76.3867 277.825 75.88C278.119 75.3467 278.265 74.52 278.265 73.4V58.44C278.265 57.2933 278.319 56.24 278.425 55.28L275.705 55.4V52.64C277.305 52.64 278.612 52.5333 279.625 52.32C280.639 52.08 281.305 51.8267 281.625 51.56H283.745V68.12H285.585Z" fill="#333333"/>
<path d="M400.464 59.96H395.256V77H397.488V70.784H400.464C404.016 70.784 406.32 68.456 406.32 65.384C406.32 62.312 404.016 59.96 400.464 59.96ZM400.464 68.72H397.488V62.048H400.464C402.816 62.048 404.112 63.488 404.112 65.384C404.112 67.28 402.816 68.72 400.464 68.72ZM408.842 77H410.906V71.048C410.906 68.24 412.562 66.92 414.074 66.92C414.482 66.92 414.818 66.968 415.202 67.112V64.976C414.866 64.904 414.578 64.88 414.266 64.88C412.874 64.88 411.386 65.792 410.906 67.328V65H408.842V77ZM428.802 71C428.802 67.544 426.138 64.76 422.538 64.76C418.914 64.76 416.25 67.544 416.25 71C416.25 74.456 418.914 77.24 422.538 77.24C426.138 77.24 428.802 74.456 428.802 71ZM418.362 71C418.362 68.6 420.042 66.68 422.538 66.68C425.034 66.68 426.69 68.6 426.69 71C426.69 73.4 425.034 75.32 422.538 75.32C420.042 75.32 418.362 73.4 418.362 71ZM430.828 71C430.828 74.432 433.348 77.24 436.708 77.24C438.508 77.24 440.14 76.304 440.932 75.152V77H442.996V59H440.932V66.848C440.14 65.696 438.508 64.76 436.708 64.76C433.348 64.76 430.828 67.568 430.828 71ZM441.1 71C441.1 73.424 439.444 75.344 437.02 75.344C434.596 75.344 432.916 73.424 432.916 71C432.916 68.576 434.596 66.656 437.02 66.656C439.444 66.656 441.1 68.576 441.1 71ZM446.714 72.368C446.714 75.344 448.49 77.24 451.13 77.24C452.642 77.24 454.034 76.544 454.826 75.152V77H456.89V65H454.826V70.952C454.826 73.712 453.362 75.344 451.49 75.344C449.834 75.344 448.778 74.072 448.778 72.056V65H446.714V72.368ZM471.676 74.024L469.876 73.016C469.204 74.384 467.86 75.32 466.132 75.32C463.636 75.32 461.932 73.4 461.932 71C461.932 68.6 463.636 66.68 466.132 66.68C467.86 66.68 469.204 67.616 469.876 68.984L471.676 67.976C470.62 66.056 468.604 64.76 466.132 64.76C462.508 64.76 459.844 67.52 459.844 71C459.844 74.48 462.508 77.24 466.132 77.24C468.604 77.24 470.62 75.944 471.676 74.024ZM480.854 76.832V74.984C480.47 75.128 479.894 75.224 479.39 75.224C478.094 75.224 477.398 74.72 477.398 73.184V66.896H480.854V65H477.398V61.664H475.334V65H472.79V66.896H475.334V73.448C475.334 75.944 476.918 77.12 479.006 77.12C479.75 77.12 480.35 77 480.854 76.832ZM488.344 71C488.344 74.432 490.864 77.24 494.224 77.24C496.024 77.24 497.656 76.304 498.448 75.152V77H500.512V59H498.448V66.848C497.656 65.696 496.024 64.76 494.224 64.76C490.864 64.76 488.344 67.568 488.344 71ZM498.616 71C498.616 73.424 496.96 75.344 494.536 75.344C492.112 75.344 490.432 73.424 490.432 71C490.432 68.576 492.112 66.656 494.536 66.656C496.96 66.656 498.616 68.576 498.616 71ZM503.461 71C503.461 74.528 505.957 77.24 509.677 77.24C512.173 77.24 513.997 76.136 515.077 74.384L513.445 73.256C512.701 74.528 511.549 75.344 509.701 75.344C507.325 75.344 505.621 73.664 505.549 71.408H515.389C515.413 71.144 515.413 71 515.413 70.784C515.389 66.944 512.845 64.76 509.701 64.76C506.053 64.76 503.461 67.496 503.461 71ZM509.629 66.584C511.453 66.584 513.013 67.76 513.301 69.728H505.693C506.077 67.736 507.829 66.584 509.629 66.584ZM526.142 73.64C526.142 71.816 524.942 70.736 522.878 70.112L521.558 69.704C520.238 69.296 519.854 68.696 519.854 67.976C519.854 67.088 520.838 66.536 521.846 66.536C522.998 66.536 523.814 67.136 524.342 67.904L525.878 66.848C525.086 65.504 523.694 64.76 521.918 64.76C519.614 64.76 517.814 65.984 517.79 68.048C517.79 69.728 518.822 70.976 520.79 71.552L521.99 71.936C523.55 72.416 524.078 72.944 524.078 73.808C524.078 74.84 523.142 75.416 521.99 75.416C520.67 75.416 519.374 74.744 518.942 73.52L517.262 74.456C517.982 76.328 519.83 77.24 521.966 77.24C524.366 77.24 526.142 75.944 526.142 73.64ZM531.643 60.32C531.643 59.528 531.019 58.856 530.203 58.856C529.387 58.856 528.715 59.528 528.715 60.32C528.715 61.136 529.387 61.784 530.203 61.784C531.019 61.784 531.643 61.136 531.643 60.32ZM529.147 77H531.211V65H529.147V77ZM546.308 76.304V65H544.244V66.848C543.428 65.648 541.844 64.76 540.068 64.76C536.732 64.76 534.188 67.448 534.188 70.856C534.188 74.288 536.732 76.976 540.068 76.976C541.844 76.976 543.428 76.064 544.244 74.864V76.232C544.244 79.112 542.276 80.384 540.236 80.384C538.388 80.384 536.996 79.592 536.036 78.368L534.596 79.808C535.628 81.152 537.644 82.256 540.236 82.256C543.668 82.256 546.308 80.312 546.308 76.304ZM536.3 70.856C536.3 68.456 537.956 66.656 540.356 66.656C542.756 66.656 544.412 68.456 544.412 70.856C544.412 73.28 542.756 75.056 540.356 75.056C537.956 75.056 536.3 73.28 536.3 70.856ZM550.194 77H552.258V71.048C552.258 68.24 553.794 66.656 555.738 66.656C557.418 66.656 558.57 67.904 558.57 69.92V77H560.61V69.608C560.61 66.632 558.762 64.76 556.074 64.76C554.514 64.76 553.074 65.432 552.258 66.848V65H550.194V77ZM575.468 59.6C576.748 59.6 577.756 59.928 578.492 60.584C579.244 61.224 579.62 62.128 579.62 63.296C579.62 64.304 579.292 65.16 578.636 65.864C577.996 66.568 577.18 67.208 576.188 67.784L580.82 72.248C581.236 71.752 581.572 71.184 581.828 70.544C582.1 69.888 582.324 69.184 582.5 68.432H584.636C584.38 69.456 584.06 70.408 583.676 71.288C583.292 72.168 582.796 72.936 582.188 73.592L585.692 77H582.836L580.748 74.984C579.996 75.656 579.156 76.2 578.228 76.616C577.3 77.032 576.172 77.24 574.844 77.24C573.196 77.24 571.884 76.832 570.908 76.016C569.932 75.2 569.444 74.04 569.444 72.536C569.444 71.304 569.772 70.32 570.428 69.584C571.1 68.832 572.004 68.136 573.14 67.496C572.628 66.92 572.148 66.304 571.7 65.648C571.268 64.992 571.052 64.224 571.052 63.344C571.052 62.16 571.444 61.24 572.228 60.584C573.028 59.928 574.108 59.6 575.468 59.6ZM575.396 61.328C574.724 61.328 574.172 61.504 573.74 61.856C573.324 62.208 573.116 62.696 573.116 63.32C573.116 63.896 573.268 64.432 573.572 64.928C573.876 65.408 574.316 65.944 574.892 66.536C575.836 65.992 576.508 65.48 576.908 65C577.324 64.504 577.532 63.936 577.532 63.296C577.532 62.72 577.34 62.248 576.956 61.88C576.572 61.512 576.052 61.328 575.396 61.328ZM574.412 68.816C573.548 69.328 572.868 69.848 572.372 70.376C571.892 70.904 571.652 71.6 571.652 72.464C571.652 73.344 571.948 74.048 572.54 74.576C573.132 75.104 573.924 75.368 574.916 75.368C575.94 75.368 576.82 75.2 577.556 74.864C578.292 74.528 578.908 74.128 579.404 73.664L574.412 68.816ZM592.547 71C592.547 74.432 595.067 77.24 598.427 77.24C600.227 77.24 601.859 76.304 602.651 75.152V77H604.715V59H602.651V66.848C601.859 65.696 600.227 64.76 598.427 64.76C595.067 64.76 592.547 67.568 592.547 71ZM602.819 71C602.819 73.424 601.163 75.344 598.739 75.344C596.315 75.344 594.635 73.424 594.635 71C594.635 68.576 596.315 66.656 598.739 66.656C601.163 66.656 602.819 68.576 602.819 71ZM607.664 71C607.664 74.528 610.16 77.24 613.88 77.24C616.376 77.24 618.2 76.136 619.28 74.384L617.648 73.256C616.904 74.528 615.752 75.344 613.904 75.344C611.528 75.344 609.824 73.664 609.752 71.408H619.592C619.616 71.144 619.616 71 619.616 70.784C619.592 66.944 617.048 64.76 613.904 64.76C610.256 64.76 607.664 67.496 607.664 71ZM613.832 66.584C615.656 66.584 617.216 67.76 617.504 69.728H609.896C610.28 67.736 612.032 66.584 613.832 66.584ZM626.102 77H627.83L633.374 65H631.07L626.966 74.072L622.862 65H620.558L626.102 77ZM634.266 71C634.266 74.528 636.762 77.24 640.482 77.24C642.978 77.24 644.802 76.136 645.882 74.384L644.25 73.256C643.506 74.528 642.354 75.344 640.506 75.344C638.13 75.344 636.426 73.664 636.354 71.408H646.194C646.218 71.144 646.218 71 646.218 70.784C646.194 66.944 643.65 64.76 640.506 64.76C636.858 64.76 634.266 67.496 634.266 71ZM640.434 66.584C642.258 66.584 643.818 67.76 644.106 69.728H636.498C636.882 67.736 638.634 66.584 640.434 66.584ZM649.147 77H651.211V59H649.147V77ZM666.716 71C666.716 67.544 664.052 64.76 660.452 64.76C656.828 64.76 654.164 67.544 654.164 71C654.164 74.456 656.828 77.24 660.452 77.24C664.052 77.24 666.716 74.456 666.716 71ZM656.276 71C656.276 68.6 657.956 66.68 660.452 66.68C662.948 66.68 664.604 68.6 664.604 71C664.604 73.4 662.948 75.32 660.452 75.32C657.956 75.32 656.276 73.4 656.276 71ZM669.678 82.016H671.742V75.152C672.534 76.304 674.166 77.24 675.966 77.24C679.302 77.24 681.846 74.432 681.846 71C681.846 67.568 679.302 64.76 675.966 64.76C674.166 64.76 672.534 65.696 671.742 66.848V65H669.678V82.016ZM679.734 71C679.734 73.424 678.078 75.344 675.654 75.344C673.23 75.344 671.574 73.424 671.574 71C671.574 68.576 673.23 66.656 675.654 66.656C678.078 66.656 679.734 68.576 679.734 71ZM684.819 77H686.883V71.048C686.883 68.336 688.251 66.656 690.195 66.656C691.755 66.656 692.547 68 692.547 69.944V77H694.611V71.048C694.611 68.336 695.955 66.656 697.899 66.656C699.459 66.656 700.275 68 700.275 69.944V77H702.339V69.632C702.339 66.704 700.755 64.76 698.139 64.76C696.363 64.76 694.851 65.744 694.203 67.328C693.603 65.744 692.307 64.76 690.507 64.76C688.899 64.76 687.579 65.576 686.883 66.848V65H684.819V77ZM705.117 71C705.117 74.528 707.613 77.24 711.333 77.24C713.829 77.24 715.653 76.136 716.733 74.384L715.101 73.256C714.357 74.528 713.205 75.344 711.357 75.344C708.981 75.344 707.277 73.664 707.205 71.408H717.045C717.069 71.144 717.069 71 717.069 70.784C717.045 66.944 714.501 64.76 711.357 64.76C707.709 64.76 705.117 67.496 705.117 71ZM711.285 66.584C713.109 66.584 714.669 67.76 714.957 69.728H707.349C707.733 67.736 709.485 66.584 711.285 66.584ZM719.999 77H722.063V71.048C722.063 68.24 723.599 66.656 725.543 66.656C727.223 66.656 728.375 67.904 728.375 69.92V77H730.415V69.608C730.415 66.632 728.567 64.76 725.879 64.76C724.319 64.76 722.879 65.432 722.063 66.848V65H719.999V77ZM740.495 76.832V74.984C740.111 75.128 739.535 75.224 739.031 75.224C737.735 75.224 737.039 74.72 737.039 73.184V66.896H740.495V65H737.039V61.664H734.975V65H732.431V66.896H734.975V73.448C734.975 75.944 736.559 77.12 738.647 77.12C739.391 77.12 739.991 77 740.495 76.832Z" fill="#333333"/>
<path d="M334.68 81.4H340.12L355.56 48.6H350.12L334.68 81.4Z" fill="#30E74D"/>
</svg>
