<svg width="314" height="146" viewBox="0 0 314 146" fill="none" xmlns="http://www.w3.org/2000/svg">
<path d="M138.88 65.44C137.467 67.5467 136.32 69.12 135.44 70.16V70.2L142.76 70.36C144.333 70.3867 145.56 69.9333 146.44 69C147.347 68.04 147.8 66.52 147.8 64.44H150.44L150.2 73H129.6V70L141.56 51.76C142.733 49.9733 143.667 48.6667 144.36 47.84V47.8L137.52 47.6C135.947 47.5467 134.707 48 133.8 48.96C132.893 49.92 132.44 51.44 132.44 53.52H129.8L130.04 45H150.4V48L138.88 65.44ZM163.101 54.24C164.941 54.24 166.594 54.6267 168.061 55.4C169.554 56.1467 170.714 57.2267 171.541 58.64C172.394 60.0533 172.821 61.7067 172.821 63.6C172.821 65.6 172.407 67.36 171.581 68.88C170.781 70.3733 169.647 71.5333 168.181 72.36C166.741 73.1867 165.087 73.6 163.221 73.6C161.354 73.6 159.674 73.2267 158.181 72.48C156.687 71.7067 155.514 70.6267 154.661 69.24C153.807 67.8267 153.381 66.1867 153.381 64.32C153.381 62.3467 153.821 60.6 154.701 59.08C155.581 57.56 156.754 56.3733 158.221 55.52C159.714 54.6667 161.341 54.24 163.101 54.24ZM163.101 56.8C161.687 56.8 160.661 57.4267 160.021 58.68C159.381 59.9333 159.061 61.48 159.061 63.32C159.061 65.4267 159.407 67.24 160.101 68.76C160.794 70.2533 161.861 71 163.301 71C165.834 71 167.101 68.8267 167.101 64.48C167.101 62.4 166.781 60.6 166.141 59.08C165.501 57.56 164.487 56.8 163.101 56.8ZM200.135 54.24C202.268 54.24 203.855 54.8267 204.895 56C205.935 57.1467 206.455 59.08 206.455 61.8V67.16C206.455 68.3067 206.401 69.3733 206.295 70.36C207.095 70.28 207.935 70.24 208.815 70.24V73H199.055V70.64C199.855 70.64 200.375 70.3867 200.615 69.88C200.855 69.3467 200.975 68.52 200.975 67.4V61.84C200.948 60.3467 200.681 59.28 200.175 58.64C199.695 58 198.988 57.6533 198.055 57.6C196.855 57.6 195.708 58 194.615 58.8C194.855 59.7867 194.975 60.9467 194.975 62.28V67.16C194.975 68.3067 194.921 69.3733 194.815 70.36C195.615 70.28 196.455 70.24 197.335 70.24V73H187.375V70.64C188.281 70.64 188.855 70.3867 189.095 69.88C189.361 69.3467 189.495 68.52 189.495 67.4L189.455 61.72C189.455 60.2 189.215 59.1333 188.735 58.52C188.281 57.9067 187.601 57.6 186.695 57.6C185.548 57.6 184.455 58.04 183.415 58.92V67.16C183.415 68.3067 183.361 69.3733 183.255 70.36C184.055 70.28 184.828 70.24 185.575 70.24V73H175.695V70.64C176.655 70.64 177.268 70.3867 177.535 69.88C177.801 69.3733 177.935 68.5467 177.935 67.4V61.28C177.935 60.1867 177.988 59.16 178.095 58.2L175.415 58.32V55.56C177.015 55.56 178.321 55.4533 179.335 55.24C180.348 55 181.015 54.7333 181.335 54.44H183.215C183.215 54.4933 183.268 55.1067 183.375 56.28H183.455C184.255 55.6933 185.148 55.2133 186.135 54.84C187.148 54.44 188.135 54.24 189.095 54.24C191.361 54.24 192.948 55.04 193.855 56.64C194.788 55.92 195.815 55.3467 196.935 54.92C198.055 54.4667 199.121 54.24 200.135 54.24ZM217.403 56.2C218.976 54.8933 220.709 54.24 222.603 54.24C224.149 54.24 225.509 54.6267 226.683 55.4C227.856 56.1467 228.763 57.2133 229.403 58.6C230.069 59.9867 230.403 61.6 230.403 63.44C230.403 65.3867 230.016 67.1333 229.243 68.68C228.496 70.2267 227.416 71.44 226.003 72.32C224.589 73.1733 222.936 73.6 221.043 73.6C220.136 73.6 219.176 73.4267 218.163 73.08C217.149 72.76 216.243 72.2 215.442 71.4H215.403L214.283 73H211.963V52.44C211.963 51.0533 212.003 50 212.083 49.28L209.402 49.4V46.64C211.003 46.64 212.309 46.5333 213.323 46.32C214.336 46.08 215.003 45.8267 215.323 45.56H217.403V56.2ZM220.643 57.52C219.976 57.52 219.349 57.6667 218.763 57.96C218.203 58.2267 217.749 58.6 217.403 59.08V67.56C217.403 68.7333 217.696 69.5867 218.283 70.12C218.869 70.6533 219.563 70.92 220.363 70.92C221.909 70.92 223.016 70.2667 223.683 68.96C224.376 67.6533 224.723 66 224.723 64C224.723 62.1867 224.376 60.6533 223.683 59.4C223.016 58.1467 222.003 57.52 220.643 57.52ZM241.832 54.24C246.579 54.24 248.952 56.56 248.952 61.2L248.912 67.16C248.912 68.3067 248.859 69.3733 248.752 70.36C249.605 70.28 250.445 70.24 251.272 70.24V73H243.992C243.939 72.68 243.885 72.12 243.832 71.32H243.792C242.245 72.84 240.352 73.6 238.112 73.6C236.485 73.6 235.205 73.1467 234.272 72.24C233.339 71.3333 232.872 70.1733 232.872 68.76C232.872 66.6267 233.912 65.0133 235.992 63.92C238.099 62.8 240.632 62.1733 243.592 62.04V60.16C243.592 57.9467 242.699 56.84 240.912 56.84C240.405 56.84 239.912 56.9333 239.432 57.12C238.952 57.3067 238.552 57.56 238.232 57.88C238.525 58.2267 238.672 58.68 238.672 59.24C238.672 59.8267 238.459 60.36 238.032 60.84C237.605 61.2933 236.992 61.52 236.192 61.52C235.419 61.52 234.805 61.2933 234.352 60.84C233.925 60.36 233.712 59.76 233.712 59.04C233.712 58.1067 234.072 57.28 234.792 56.56C235.512 55.8133 236.485 55.24 237.712 54.84C238.965 54.44 240.339 54.24 241.832 54.24ZM243.552 64.64C242.032 64.7733 240.779 65.1467 239.792 65.76C238.805 66.3467 238.312 67.12 238.312 68.08C238.312 68.72 238.525 69.2 238.952 69.52C239.379 69.84 239.899 70 240.512 70C241.685 70 242.699 69.5733 243.552 68.72V64.64ZM263.186 54.24C264.733 54.24 266.066 54.48 267.186 54.96C268.306 55.4133 269.146 56.0267 269.706 56.8C270.293 57.5467 270.586 58.3467 270.586 59.2C270.586 59.9733 270.346 60.6267 269.866 61.16C269.386 61.6933 268.733 61.96 267.906 61.96C267.053 61.96 266.413 61.72 265.986 61.24C265.586 60.76 265.386 60.2133 265.386 59.6C265.386 59.36 265.426 59.0933 265.506 58.8C265.586 58.5067 265.693 58.24 265.826 58C265.586 57.5467 265.213 57.24 264.706 57.08C264.226 56.8933 263.733 56.8 263.226 56.8C261.893 56.8 260.813 57.36 259.986 58.48C259.186 59.6 258.786 61.1867 258.786 63.24C258.786 65.2667 259.186 66.9467 259.986 68.28C260.813 69.5867 262.106 70.28 263.866 70.36C264.933 70.3867 265.986 70.1467 267.026 69.64C268.066 69.1333 268.946 68.44 269.666 67.56L271.426 69.2C270.146 70.8533 268.773 72 267.306 72.64C265.84 73.28 264.28 73.6 262.626 73.6C260.866 73.6 259.266 73.2267 257.826 72.48C256.386 71.7333 255.24 70.6667 254.386 69.28C253.56 67.8667 253.146 66.2133 253.146 64.32C253.146 62.48 253.573 60.8 254.426 59.28C255.28 57.7333 256.466 56.5067 257.986 55.6C259.533 54.6933 261.266 54.24 263.186 54.24ZM282.585 62.12L285.345 59.12C286.092 58.32 286.599 57.8133 286.865 57.6V57.56L284.825 57.6V54.8H293.465V57.16C292.239 57.2933 291.199 57.6133 290.345 58.12C289.492 58.6267 288.719 59.2533 288.025 60L285.545 62.6V62.64C285.945 62.8267 286.332 63.0933 286.705 63.44C287.079 63.76 287.532 64.24 288.065 64.88L290.625 68.08C291.265 68.8533 291.839 69.48 292.345 69.96C292.879 70.4133 293.492 70.64 294.185 70.64V73H289.745C288.972 73 288.292 72.7733 287.705 72.32C287.119 71.84 286.372 71.0133 285.465 69.84C284.772 68.96 283.852 67.72 282.705 66.12L281.625 64.68L280.745 64.72V67.16C280.745 68.3067 280.692 69.3733 280.585 70.36C281.385 70.28 282.212 70.24 283.065 70.24V73H272.945V70.64C273.932 70.64 274.559 70.3867 274.825 69.88C275.119 69.3467 275.265 68.52 275.265 67.4V52.44C275.265 51.2933 275.319 50.24 275.425 49.28L272.705 49.4V46.64C274.305 46.64 275.612 46.5333 276.625 46.32C277.639 46.08 278.305 45.8267 278.625 45.56H280.745V62.12H282.585Z" fill="#333333"/>
<path d="M5.232 119.096C5.232 119.896 5.208 120.512 5.16 120.944L7.368 120.824V122H1.152V121.112H1.224C1.768 121.112 2.152 121 2.376 120.776C2.6 120.536 2.728 120.256 2.76 119.936C2.792 119.616 2.808 119.04 2.808 118.208V107.936C2.808 107.296 2.832 106.736 2.88 106.256L1.152 106.352V105.2C3.52 105.168 5.36 105.152 6.672 105.152C9.088 105.152 10.928 105.576 12.192 106.424C13.456 107.272 14.088 108.504 14.088 110.12C14.088 111.064 13.84 111.96 13.344 112.808C12.848 113.64 11.992 114.336 10.776 114.896C9.56 115.456 7.944 115.736 5.928 115.736C5.64 115.736 5.408 115.728 5.232 115.712V119.096ZM6.624 106.184C6.032 106.184 5.648 106.344 5.472 106.664C5.312 106.984 5.232 107.504 5.232 108.224V108.992V114.632H5.16C5.528 114.68 6.016 114.704 6.624 114.704C7.52 114.704 8.328 114.536 9.048 114.2C9.784 113.848 10.36 113.344 10.776 112.688C11.208 112.016 11.424 111.224 11.424 110.312C11.424 107.56 9.824 106.184 6.624 106.184ZM22.5947 110.6C23.0587 110.6 23.4507 110.728 23.7707 110.984C24.1067 111.24 24.2747 111.616 24.2747 112.112C24.2747 112.368 24.1707 112.632 23.9627 112.904C23.7547 113.176 23.4667 113.312 23.0987 113.312C22.7627 113.312 22.4747 113.192 22.2347 112.952C22.0107 112.696 21.8987 112.408 21.8987 112.088C21.3707 112.104 20.8427 112.328 20.3147 112.76C19.8027 113.176 19.3707 113.712 19.0187 114.368V119.696C19.0187 120.288 18.9947 120.728 18.9467 121.016L20.3387 120.968V122.144H15.5387V121.208H15.5627C15.9787 121.224 16.2747 121.144 16.4507 120.968C16.6427 120.776 16.7547 120.528 16.7867 120.224C16.8187 119.904 16.8347 119.392 16.8347 118.688V113.72C16.8347 113.16 16.8587 112.728 16.9067 112.424L15.3467 112.496V111.32H16.1627C16.7227 111.32 17.1227 111.272 17.3627 111.176C17.6027 111.08 17.8347 110.928 18.0587 110.72H18.8507C18.9147 111.232 18.9547 111.864 18.9707 112.616C19.3867 112.072 19.9227 111.6 20.5787 111.2C21.2347 110.8 21.9067 110.6 22.5947 110.6ZM30.5436 110.576C31.5676 110.576 32.4956 110.824 33.3276 111.32C34.1756 111.816 34.8396 112.504 35.3196 113.384C35.7996 114.248 36.0396 115.216 36.0396 116.288C36.0396 117.44 35.7996 118.496 35.3196 119.456C34.8396 120.4 34.1836 121.152 33.3516 121.712C32.5196 122.256 31.5836 122.528 30.5436 122.528C29.5196 122.528 28.5916 122.288 27.7596 121.808C26.9276 121.312 26.2716 120.632 25.7916 119.768C25.3276 118.888 25.0956 117.904 25.0956 116.816C25.0956 115.648 25.3276 114.592 25.7916 113.648C26.2716 112.688 26.9276 111.936 27.7596 111.392C28.5916 110.848 29.5196 110.576 30.5436 110.576ZM30.5436 111.728C29.4716 111.728 28.6636 112.152 28.1196 113C27.5916 113.848 27.3276 114.904 27.3276 116.168C27.3276 117.608 27.6156 118.824 28.1916 119.816C28.7836 120.808 29.6236 121.304 30.7116 121.304C31.7996 121.304 32.5916 120.896 33.0876 120.08C33.5836 119.248 33.8316 118.192 33.8316 116.912C33.8316 115.488 33.5516 114.272 32.9916 113.264C32.4476 112.24 31.6316 111.728 30.5436 111.728ZM49.1453 122.144H45.7373C45.6413 121.648 45.5853 121.32 45.5693 121.16C45.1213 121.576 44.6013 121.904 44.0093 122.144C43.4173 122.384 42.7853 122.504 42.1133 122.504C41.1853 122.504 40.3453 122.272 39.5933 121.808C38.8413 121.344 38.2493 120.68 37.8173 119.816C37.3853 118.952 37.1693 117.96 37.1693 116.84C37.1693 115.656 37.4173 114.592 37.9133 113.648C38.4253 112.688 39.1293 111.944 40.0253 111.416C40.9213 110.872 41.9213 110.6 43.0253 110.6C43.4413 110.6 43.8733 110.656 44.3213 110.768C44.7853 110.864 45.1773 110.992 45.4973 111.152V108.368C45.4973 107.856 45.5133 107.432 45.5453 107.096L44.0093 107.168V105.968H44.0333C44.9773 105.968 45.6253 105.92 45.9773 105.824C46.3453 105.728 46.6253 105.584 46.8173 105.392H47.6573V119.696C47.6573 120.064 47.6333 120.504 47.5853 121.016L49.1453 120.944V122.144ZM45.4973 119.792C45.4813 119.552 45.4733 119.168 45.4733 118.64L45.4973 112.448C44.8573 111.968 44.0733 111.728 43.1453 111.728C42.1213 111.728 41.2893 112.144 40.6493 112.976C40.0253 113.808 39.7133 114.92 39.7133 116.312C39.7133 117.768 39.9853 118.936 40.5293 119.816C41.0893 120.696 41.8813 121.136 42.9053 121.136C43.3693 121.136 43.8333 121.016 44.2973 120.776C44.7613 120.52 45.1613 120.192 45.4973 119.792ZM62.5504 122.144H59.1424C59.0624 121.76 59.0064 121.368 58.9744 120.968C58.4784 121.416 57.9104 121.784 57.2704 122.072C56.6464 122.36 56.0384 122.504 55.4464 122.504C54.1664 122.504 53.2144 122.128 52.5904 121.376C51.9824 120.624 51.6784 119.36 51.6784 117.584V113.72C51.6784 113.16 51.6944 112.728 51.7264 112.424L50.2384 112.496V111.32H51.0544C51.6464 111.32 52.0784 111.272 52.3504 111.176C52.6384 111.064 52.8704 110.912 53.0464 110.72H53.8864V117.536C53.8864 118.768 54.0544 119.672 54.3904 120.248C54.7264 120.808 55.3024 121.088 56.1184 121.088C56.6464 121.088 57.1584 120.936 57.6544 120.632C58.1504 120.328 58.5584 119.952 58.8784 119.504V113.96C58.8784 113.336 58.9104 112.824 58.9744 112.424L57.4144 112.496V111.32H58.2064C58.7984 111.32 59.2384 111.272 59.5264 111.176C59.8144 111.064 60.0464 110.912 60.2224 110.72H61.0624L61.0384 119.12C61.0384 119.856 61.0064 120.488 60.9424 121.016L62.5504 120.944V122.144ZM69.9572 110.6C70.7572 110.6 71.4772 110.736 72.1172 111.008C72.7732 111.264 73.2772 111.608 73.6292 112.04C73.9972 112.472 74.1812 112.936 74.1812 113.432C74.1812 113.784 74.0612 114.088 73.8212 114.344C73.5972 114.6 73.3092 114.728 72.9572 114.728C72.6052 114.728 72.3332 114.6 72.1412 114.344C71.9492 114.088 71.8532 113.84 71.8532 113.6C71.8532 113.248 71.9572 112.944 72.1652 112.688C71.9892 112.304 71.6932 112.048 71.2772 111.92C70.8612 111.776 70.4372 111.704 70.0052 111.704C68.9812 111.704 68.1412 112.096 67.4852 112.88C66.8452 113.664 66.5252 114.768 66.5252 116.192C66.5252 117.648 66.8612 118.824 67.5332 119.72C68.2212 120.616 69.1252 121.064 70.2452 121.064C70.9172 121.064 71.5652 120.888 72.1892 120.536C72.8292 120.168 73.3252 119.712 73.6772 119.168H73.7012L74.4932 119.72C73.9332 120.632 73.1972 121.328 72.2852 121.808C71.3892 122.272 70.5012 122.504 69.6212 122.504C68.5972 122.504 67.6532 122.272 66.7892 121.808C65.9412 121.344 65.2612 120.68 64.7492 119.816C64.2532 118.936 64.0052 117.912 64.0052 116.744C64.0052 115.72 64.2612 114.736 64.7732 113.792C65.2852 112.832 65.9972 112.064 66.9092 111.488C67.8212 110.896 68.8372 110.6 69.9572 110.6ZM79.5315 109.544L79.5075 110.936H83.2515V112.088L79.5315 112.136L79.4835 118.04C79.4835 119.064 79.5955 119.808 79.8195 120.272C80.0435 120.736 80.4515 120.968 81.0435 120.968C81.4275 120.968 81.8035 120.856 82.1715 120.632C82.5555 120.392 82.8755 120.056 83.1315 119.624H83.1795L83.9715 120.248C82.9635 121.752 81.7875 122.504 80.4435 122.504C78.3155 122.504 77.2595 121.112 77.2755 118.328L77.3235 112.16L75.6195 112.184V110.936C76.3555 110.968 76.9635 110.672 77.4435 110.048C77.9395 109.424 78.3155 108.704 78.5715 107.888H79.5315V109.544ZM103.286 122.144H99.8779C99.7819 121.648 99.7259 121.32 99.7099 121.16C99.2619 121.576 98.7419 121.904 98.1499 122.144C97.5579 122.384 96.9259 122.504 96.2539 122.504C95.3259 122.504 94.4859 122.272 93.7339 121.808C92.9819 121.344 92.3899 120.68 91.9579 119.816C91.5259 118.952 91.3099 117.96 91.3099 116.84C91.3099 115.656 91.5579 114.592 92.0539 113.648C92.5659 112.688 93.2699 111.944 94.1659 111.416C95.0619 110.872 96.0619 110.6 97.1659 110.6C97.5819 110.6 98.0139 110.656 98.4619 110.768C98.9259 110.864 99.3179 110.992 99.6379 111.152V108.368C99.6379 107.856 99.6539 107.432 99.6859 107.096L98.1499 107.168V105.968H98.1739C99.1179 105.968 99.7659 105.92 100.118 105.824C100.486 105.728 100.766 105.584 100.958 105.392H101.798V119.696C101.798 120.064 101.774 120.504 101.726 121.016L103.286 120.944V122.144ZM99.6379 119.792C99.6219 119.552 99.6139 119.168 99.6139 118.64L99.6379 112.448C98.9979 111.968 98.2139 111.728 97.2859 111.728C96.2619 111.728 95.4299 112.144 94.7899 112.976C94.1659 113.808 93.8539 114.92 93.8539 116.312C93.8539 117.768 94.1259 118.936 94.6699 119.816C95.2299 120.696 96.0219 121.136 97.0459 121.136C97.5099 121.136 97.9739 121.016 98.4379 120.776C98.9019 120.52 99.3019 120.192 99.6379 119.792ZM115.347 119.84C114.771 120.72 114.011 121.384 113.067 121.832C112.123 122.28 111.211 122.504 110.331 122.504C109.291 122.504 108.347 122.264 107.499 121.784C106.667 121.288 106.003 120.592 105.507 119.696C105.027 118.784 104.787 117.744 104.787 116.576C104.787 115.536 105.027 114.56 105.507 113.648C106.003 112.72 106.683 111.984 107.547 111.44C108.427 110.88 109.411 110.6 110.499 110.6C111.379 110.6 112.171 110.792 112.875 111.176C113.579 111.56 114.131 112.136 114.531 112.904C114.947 113.672 115.147 114.608 115.131 115.712H115.107L107.283 115.832H107.307C107.323 117.512 107.619 118.808 108.195 119.72C108.771 120.632 109.659 121.088 110.859 121.088C111.563 121.088 112.267 120.912 112.971 120.56C113.691 120.208 114.227 119.776 114.579 119.264H114.627L115.347 119.84ZM110.523 111.728C109.675 111.728 108.987 111.96 108.459 112.424C107.947 112.888 107.595 113.624 107.403 114.632H112.803C112.787 113.816 112.587 113.128 112.203 112.568C111.835 112.008 111.275 111.728 110.523 111.728ZM119.324 113.216C119.324 113.76 119.548 114.192 119.996 114.512C120.46 114.816 121.164 115.152 122.108 115.52C122.892 115.824 123.532 116.112 124.028 116.384C124.54 116.656 124.964 117.024 125.3 117.488C125.652 117.936 125.828 118.488 125.828 119.144C125.828 119.88 125.636 120.504 125.252 121.016C124.868 121.512 124.372 121.88 123.764 122.12C123.156 122.376 122.516 122.504 121.844 122.504C121.204 122.504 120.604 122.424 120.044 122.264C119.484 122.104 118.996 121.904 118.58 121.664L118.676 122.288H117.476L117.332 118.256H118.292C118.292 118.848 118.428 119.384 118.7 119.864C118.988 120.328 119.372 120.696 119.852 120.968C120.348 121.224 120.876 121.352 121.436 121.352C122.044 121.352 122.58 121.216 123.044 120.944C123.524 120.672 123.764 120.28 123.764 119.768C123.764 119.256 123.548 118.856 123.116 118.568C122.684 118.28 122.004 117.952 121.076 117.584C120.292 117.296 119.644 117.024 119.132 116.768C118.636 116.496 118.212 116.128 117.86 115.664C117.508 115.2 117.332 114.616 117.332 113.912C117.332 113.432 117.452 112.936 117.692 112.424C117.948 111.912 118.364 111.48 118.94 111.128C119.532 110.776 120.308 110.6 121.268 110.6C122.228 110.6 123.108 110.872 123.908 111.416L123.86 110.696H125.036V114.824H124.1C124.052 113.96 123.804 113.224 123.356 112.616C122.908 112.008 122.244 111.704 121.364 111.704C120.724 111.704 120.22 111.848 119.852 112.136C119.5 112.424 119.324 112.784 119.324 113.216ZM130.039 107.504C129.671 107.504 129.343 107.352 129.055 107.048C128.783 106.744 128.647 106.384 128.647 105.968C128.647 105.536 128.791 105.168 129.079 104.864C129.367 104.56 129.695 104.408 130.063 104.408C130.447 104.408 130.775 104.56 131.047 104.864C131.319 105.168 131.455 105.536 131.455 105.968C131.455 106.384 131.311 106.744 131.023 107.048C130.735 107.352 130.407 107.504 130.039 107.504ZM132.487 122.144H127.711V121.208H127.735C128.151 121.224 128.447 121.144 128.623 120.968C128.815 120.776 128.927 120.528 128.959 120.224C128.991 119.904 129.007 119.392 129.007 118.688V113.72C129.007 113.352 129.031 112.92 129.079 112.424L127.543 112.52V111.32H127.567C128.511 111.32 129.167 111.272 129.535 111.176C129.903 111.064 130.175 110.912 130.351 110.72H131.191V119.696C131.191 120.288 131.167 120.728 131.119 121.016L132.487 120.968V122.144ZM143.994 110.816C143.514 110.928 143.154 111.336 142.914 112.04C143.282 112.392 143.57 112.8 143.778 113.264C144.002 113.712 144.114 114.184 144.114 114.68C144.114 115.496 143.89 116.24 143.442 116.912C142.994 117.584 142.394 118.112 141.642 118.496C140.906 118.864 140.122 119.048 139.29 119.048C139.018 119.048 138.762 119.024 138.522 118.976C138.234 118.944 137.994 118.928 137.802 118.928C137.338 118.928 136.954 119.024 136.65 119.216C136.346 119.392 136.194 119.616 136.194 119.888C136.194 120.24 136.45 120.48 136.962 120.608C137.49 120.72 138.378 120.8 139.626 120.848C141.482 120.944 142.882 121.248 143.826 121.76C144.77 122.272 145.242 123.112 145.242 124.28C145.242 125.064 144.97 125.736 144.426 126.296C143.882 126.872 143.178 127.304 142.314 127.592C141.466 127.896 140.578 128.048 139.65 128.048C137.73 128.048 136.306 127.752 135.378 127.16C134.45 126.568 133.986 125.84 133.986 124.976C133.986 124.4 134.162 123.88 134.514 123.416C134.866 122.968 135.29 122.624 135.786 122.384C134.922 122.016 134.49 121.432 134.49 120.632C134.49 120.136 134.666 119.672 135.018 119.24C135.386 118.792 135.858 118.488 136.434 118.328C135.826 117.992 135.346 117.544 134.994 116.984C134.642 116.408 134.466 115.768 134.466 115.064C134.466 114.2 134.698 113.432 135.162 112.76C135.626 112.072 136.226 111.544 136.962 111.176C137.714 110.792 138.49 110.6 139.29 110.6C140.282 110.6 141.202 110.856 142.05 111.368C142.29 110.76 142.658 110.264 143.154 109.88C143.666 109.48 144.21 109.28 144.786 109.28C145.186 109.28 145.498 109.392 145.722 109.616C145.962 109.84 146.082 110.144 146.082 110.528C146.082 110.752 145.994 110.984 145.818 111.224C145.642 111.448 145.394 111.56 145.074 111.56C144.802 111.56 144.57 111.488 144.378 111.344C144.202 111.2 144.074 111.024 143.994 110.816ZM139.362 117.968C140.13 117.968 140.706 117.712 141.09 117.2C141.49 116.688 141.69 116 141.69 115.136C141.69 114.144 141.474 113.32 141.042 112.664C140.626 111.992 140.026 111.656 139.242 111.656C138.49 111.656 137.898 111.928 137.466 112.472C137.05 113 136.842 113.704 136.842 114.584C136.842 115.624 137.058 116.448 137.49 117.056C137.938 117.664 138.562 117.968 139.362 117.968ZM137.154 122.696C136.37 123.24 135.978 123.912 135.978 124.712C135.978 125.384 136.306 125.92 136.962 126.32C137.618 126.72 138.506 126.92 139.626 126.92C140.842 126.92 141.802 126.704 142.506 126.272C143.21 125.856 143.562 125.344 143.562 124.736C143.562 124.032 143.218 123.552 142.53 123.296C141.842 123.056 140.802 122.912 139.41 122.864C138.514 122.832 137.762 122.776 137.154 122.696ZM158.506 122H153.826V121.016C154.258 121.032 154.562 120.952 154.738 120.776C154.93 120.584 155.042 120.336 155.074 120.032C155.106 119.712 155.122 119.208 155.122 118.52V115.64C155.106 114.392 154.914 113.48 154.546 112.904C154.178 112.312 153.562 112.016 152.698 112.016C152.186 112.016 151.666 112.144 151.138 112.4C150.626 112.64 150.202 112.96 149.866 113.36C149.882 113.504 149.89 113.76 149.89 114.128L149.866 119.528C149.866 120.12 149.85 120.552 149.818 120.824L151.186 120.776V122H146.506V121.016C146.938 121.032 147.242 120.952 147.418 120.776C147.594 120.584 147.698 120.344 147.73 120.056C147.762 119.752 147.786 119.24 147.802 118.52L147.826 113.72C147.826 113.176 147.85 112.752 147.898 112.448L146.338 112.544V111.296C147.266 111.296 147.89 111.248 148.21 111.152C148.546 111.056 148.818 110.912 149.026 110.72V110.696H149.746V110.744C149.794 111 149.834 111.432 149.866 112.04V111.992C150.378 111.56 150.946 111.216 151.57 110.96C152.194 110.704 152.81 110.576 153.418 110.576C154.698 110.576 155.65 110.992 156.274 111.824C156.898 112.64 157.21 113.912 157.21 115.64V119.528C157.21 120.12 157.186 120.552 157.138 120.824L158.506 120.776V122ZM170.589 119.84C170.013 120.72 169.253 121.384 168.309 121.832C167.365 122.28 166.453 122.504 165.573 122.504C164.533 122.504 163.589 122.264 162.741 121.784C161.909 121.288 161.245 120.592 160.749 119.696C160.269 118.784 160.029 117.744 160.029 116.576C160.029 115.536 160.269 114.56 160.749 113.648C161.245 112.72 161.925 111.984 162.789 111.44C163.669 110.88 164.653 110.6 165.741 110.6C166.621 110.6 167.413 110.792 168.117 111.176C168.821 111.56 169.373 112.136 169.773 112.904C170.189 113.672 170.389 114.608 170.373 115.712H170.349L162.525 115.832H162.549C162.565 117.512 162.861 118.808 163.437 119.72C164.013 120.632 164.901 121.088 166.101 121.088C166.805 121.088 167.509 120.912 168.213 120.56C168.933 120.208 169.469 119.776 169.821 119.264H169.869L170.589 119.84ZM165.765 111.728C164.917 111.728 164.229 111.96 163.701 112.424C163.189 112.888 162.837 113.624 162.645 114.632H168.045C168.029 113.816 167.829 113.128 167.445 112.568C167.077 112.008 166.517 111.728 165.765 111.728ZM179.438 110.6C179.902 110.6 180.294 110.728 180.614 110.984C180.95 111.24 181.118 111.616 181.118 112.112C181.118 112.368 181.014 112.632 180.806 112.904C180.598 113.176 180.31 113.312 179.942 113.312C179.606 113.312 179.318 113.192 179.078 112.952C178.854 112.696 178.742 112.408 178.742 112.088C178.214 112.104 177.686 112.328 177.158 112.76C176.646 113.176 176.214 113.712 175.862 114.368V119.696C175.862 120.288 175.838 120.728 175.79 121.016L177.182 120.968V122.144H172.382V121.208H172.406C172.822 121.224 173.118 121.144 173.294 120.968C173.486 120.776 173.598 120.528 173.63 120.224C173.662 119.904 173.678 119.392 173.678 118.688V113.72C173.678 113.16 173.702 112.728 173.75 112.424L172.19 112.496V111.32H173.006C173.566 111.32 173.966 111.272 174.206 111.176C174.446 111.08 174.678 110.928 174.902 110.72H175.694C175.758 111.232 175.798 111.864 175.814 112.616C176.23 112.072 176.766 111.6 177.422 111.2C178.078 110.8 178.75 110.6 179.438 110.6ZM194.889 104.816C195.673 104.816 196.369 104.968 196.977 105.272C197.585 105.56 198.057 105.96 198.393 106.472C198.729 106.984 198.897 107.552 198.897 108.176C198.897 109.104 198.585 109.96 197.961 110.744C197.353 111.512 196.353 112.248 194.961 112.952C195.345 113.368 195.985 114.04 196.881 114.968C197.569 115.688 198.409 116.512 199.401 117.44C199.561 116.896 199.641 116.384 199.641 115.904C199.641 115.264 199.497 114.712 199.209 114.248C198.937 113.784 198.473 113.536 197.817 113.504V112.712H202.017V113.696L200.025 113.6C200.521 114.032 200.769 114.752 200.769 115.76C200.769 116.56 200.609 117.384 200.289 118.232L200.769 118.664C200.993 118.872 201.233 119.088 201.489 119.312C202.177 119.936 202.785 120.408 203.313 120.728C203.841 121.048 204.241 121.208 204.513 121.208V122H202.281C202.105 122 201.753 121.832 201.225 121.496C200.697 121.16 200.057 120.664 199.305 120.008C198.073 121.592 196.353 122.384 194.145 122.384C193.153 122.384 192.225 122.224 191.361 121.904C190.513 121.568 189.825 121.048 189.297 120.344C188.769 119.64 188.505 118.752 188.505 117.68C188.505 116.672 188.833 115.768 189.489 114.968C190.161 114.152 191.089 113.488 192.273 112.976C191.633 112.16 191.169 111.416 190.881 110.744C190.593 110.056 190.449 109.336 190.449 108.584C190.465 107.448 190.881 106.536 191.697 105.848C192.529 105.16 193.593 104.816 194.889 104.816ZM194.769 105.584C194.097 105.584 193.545 105.832 193.113 106.328C192.681 106.824 192.465 107.512 192.465 108.392C192.465 109.592 193.121 110.92 194.433 112.376C195.297 111.8 195.953 111.152 196.401 110.432C196.849 109.712 197.073 108.984 197.073 108.248C197.073 107.464 196.865 106.824 196.449 106.328C196.049 105.832 195.489 105.584 194.769 105.584ZM192.897 113.672C192.209 114.088 191.705 114.648 191.385 115.352C191.065 116.04 190.905 116.696 190.905 117.32C190.905 118.6 191.273 119.568 192.009 120.224C192.745 120.864 193.633 121.184 194.673 121.184C196.305 121.184 197.593 120.568 198.537 119.336C198.217 119.048 197.985 118.832 197.841 118.688L197.481 118.352C197.241 118.112 196.569 117.456 195.465 116.384C194.377 115.296 193.521 114.392 192.897 113.672ZM223.637 122.144H220.229C220.133 121.648 220.077 121.32 220.061 121.16C219.613 121.576 219.093 121.904 218.501 122.144C217.909 122.384 217.277 122.504 216.605 122.504C215.677 122.504 214.837 122.272 214.085 121.808C213.333 121.344 212.741 120.68 212.309 119.816C211.877 118.952 211.661 117.96 211.661 116.84C211.661 115.656 211.909 114.592 212.405 113.648C212.917 112.688 213.621 111.944 214.517 111.416C215.413 110.872 216.413 110.6 217.517 110.6C217.933 110.6 218.365 110.656 218.813 110.768C219.277 110.864 219.669 110.992 219.989 111.152V108.368C219.989 107.856 220.005 107.432 220.037 107.096L218.501 107.168V105.968H218.525C219.469 105.968 220.117 105.92 220.469 105.824C220.837 105.728 221.117 105.584 221.309 105.392H222.149V119.696C222.149 120.064 222.125 120.504 222.077 121.016L223.637 120.944V122.144ZM219.989 119.792C219.973 119.552 219.965 119.168 219.965 118.64L219.989 112.448C219.349 111.968 218.565 111.728 217.637 111.728C216.613 111.728 215.781 112.144 215.141 112.976C214.517 113.808 214.205 114.92 214.205 116.312C214.205 117.768 214.477 118.936 215.021 119.816C215.581 120.696 216.373 121.136 217.397 121.136C217.861 121.136 218.325 121.016 218.789 120.776C219.253 120.52 219.653 120.192 219.989 119.792ZM235.699 119.84C235.123 120.72 234.363 121.384 233.419 121.832C232.475 122.28 231.563 122.504 230.683 122.504C229.643 122.504 228.699 122.264 227.851 121.784C227.019 121.288 226.355 120.592 225.859 119.696C225.379 118.784 225.139 117.744 225.139 116.576C225.139 115.536 225.379 114.56 225.859 113.648C226.355 112.72 227.035 111.984 227.899 111.44C228.779 110.88 229.763 110.6 230.851 110.6C231.731 110.6 232.523 110.792 233.227 111.176C233.931 111.56 234.483 112.136 234.883 112.904C235.299 113.672 235.499 114.608 235.483 115.712H235.459L227.635 115.832H227.659C227.675 117.512 227.971 118.808 228.547 119.72C229.123 120.632 230.011 121.088 231.211 121.088C231.915 121.088 232.619 120.912 233.323 120.56C234.043 120.208 234.579 119.776 234.931 119.264H234.979L235.699 119.84ZM230.875 111.728C230.027 111.728 229.339 111.96 228.811 112.424C228.299 112.888 227.947 113.624 227.755 114.632H233.155C233.139 113.816 232.939 113.128 232.555 112.568C232.187 112.008 231.627 111.728 230.875 111.728ZM247.836 111.896H247.812C247.492 111.88 247.22 111.968 246.996 112.16C246.788 112.352 246.596 112.632 246.42 113C246.244 113.352 245.996 113.928 245.676 114.728L242.724 122.216H241.692L238.452 114.992C237.892 113.728 237.58 112.752 237.516 112.064L236.532 112.136V110.936H240.9V111.896H240.876C240.236 111.88 239.916 112.112 239.916 112.592C239.916 112.896 240.068 113.408 240.372 114.128L242.1 117.968L242.652 119.288L243.06 118.16L244.836 113.384C244.948 113.048 245.132 112.608 245.388 112.064L244.092 112.136V110.936H247.836V111.896ZM259.253 119.84C258.677 120.72 257.917 121.384 256.973 121.832C256.029 122.28 255.117 122.504 254.237 122.504C253.197 122.504 252.253 122.264 251.405 121.784C250.573 121.288 249.909 120.592 249.413 119.696C248.933 118.784 248.693 117.744 248.693 116.576C248.693 115.536 248.933 114.56 249.413 113.648C249.909 112.72 250.589 111.984 251.453 111.44C252.333 110.88 253.317 110.6 254.405 110.6C255.285 110.6 256.077 110.792 256.781 111.176C257.485 111.56 258.037 112.136 258.437 112.904C258.853 113.672 259.053 114.608 259.037 115.712H259.013L251.189 115.832H251.213C251.229 117.512 251.525 118.808 252.101 119.72C252.677 120.632 253.565 121.088 254.765 121.088C255.469 121.088 256.173 120.912 256.877 120.56C257.597 120.208 258.133 119.776 258.485 119.264H258.533L259.253 119.84ZM254.429 111.728C253.581 111.728 252.893 111.96 252.365 112.424C251.853 112.888 251.501 113.624 251.309 114.632H256.709C256.693 113.816 256.493 113.128 256.109 112.568C255.741 112.008 255.181 111.728 254.429 111.728ZM265.607 122.144H260.807V121.208H260.831C261.263 121.224 261.567 121.144 261.743 120.968C261.935 120.776 262.047 120.528 262.079 120.224C262.111 119.904 262.127 119.392 262.127 118.688V108.368C262.127 107.856 262.143 107.432 262.175 107.096L260.615 107.168V105.968H260.639C261.567 105.968 262.215 105.92 262.583 105.824C262.967 105.728 263.271 105.584 263.495 105.392H264.287L264.311 119.696C264.311 120.192 264.279 120.632 264.215 121.016L265.607 120.968V122.144ZM272.559 110.576C273.583 110.576 274.511 110.824 275.343 111.32C276.191 111.816 276.855 112.504 277.335 113.384C277.815 114.248 278.055 115.216 278.055 116.288C278.055 117.44 277.815 118.496 277.335 119.456C276.855 120.4 276.199 121.152 275.367 121.712C274.535 122.256 273.599 122.528 272.559 122.528C271.535 122.528 270.607 122.288 269.775 121.808C268.943 121.312 268.287 120.632 267.807 119.768C267.343 118.888 267.111 117.904 267.111 116.816C267.111 115.648 267.343 114.592 267.807 113.648C268.287 112.688 268.943 111.936 269.775 111.392C270.607 110.848 271.535 110.576 272.559 110.576ZM272.559 111.728C271.487 111.728 270.679 112.152 270.135 113C269.607 113.848 269.343 114.904 269.343 116.168C269.343 117.608 269.631 118.824 270.207 119.816C270.799 120.808 271.639 121.304 272.727 121.304C273.815 121.304 274.607 120.896 275.103 120.08C275.599 119.248 275.847 118.192 275.847 116.912C275.847 115.488 275.567 114.272 275.007 113.264C274.463 112.24 273.647 111.728 272.559 111.728ZM285.833 110.6C286.713 110.6 287.537 110.832 288.305 111.296C289.073 111.744 289.689 112.392 290.153 113.24C290.617 114.072 290.849 115.04 290.849 116.144C290.849 117.376 290.577 118.48 290.033 119.456C289.505 120.416 288.793 121.168 287.897 121.712C287.017 122.24 286.065 122.504 285.041 122.504C284.097 122.504 283.249 122.296 282.497 121.88V125.24C282.497 125.848 282.473 126.296 282.425 126.584L283.793 126.536V127.712H279.017V126.776H279.041C279.457 126.792 279.753 126.704 279.929 126.512C280.121 126.336 280.233 126.088 280.265 125.768C280.297 125.464 280.321 124.96 280.337 124.256L280.361 113.72C280.361 113.16 280.385 112.728 280.433 112.424L278.873 112.52V111.32H278.897C279.553 111.32 280.057 111.296 280.409 111.248C280.761 111.184 281.001 111.12 281.129 111.056C281.273 110.976 281.417 110.864 281.561 110.72H282.377C282.425 111.28 282.457 111.632 282.473 111.776C282.921 111.424 283.441 111.144 284.033 110.936C284.641 110.712 285.241 110.6 285.833 110.6ZM284.993 121.328C286.001 121.328 286.801 120.888 287.393 120.008C288.001 119.112 288.305 117.944 288.305 116.504C288.305 115.224 288.033 114.144 287.489 113.264C286.945 112.384 286.121 111.944 285.017 111.944C284.553 111.944 284.097 112.056 283.649 112.28C283.217 112.488 282.841 112.76 282.521 113.096C282.537 113.208 282.545 113.696 282.545 114.56L282.521 120.536C283.257 121.064 284.081 121.328 284.993 121.328ZM303.199 119.84C302.623 120.72 301.863 121.384 300.919 121.832C299.975 122.28 299.063 122.504 298.183 122.504C297.143 122.504 296.199 122.264 295.351 121.784C294.519 121.288 293.855 120.592 293.359 119.696C292.879 118.784 292.639 117.744 292.639 116.576C292.639 115.536 292.879 114.56 293.359 113.648C293.855 112.72 294.535 111.984 295.399 111.44C296.279 110.88 297.263 110.6 298.351 110.6C299.231 110.6 300.023 110.792 300.727 111.176C301.431 111.56 301.983 112.136 302.383 112.904C302.799 113.672 302.999 114.608 302.983 115.712H302.959L295.135 115.832H295.159C295.175 117.512 295.471 118.808 296.047 119.72C296.623 120.632 297.511 121.088 298.711 121.088C299.415 121.088 300.119 120.912 300.823 120.56C301.543 120.208 302.079 119.776 302.431 119.264H302.479L303.199 119.84ZM298.375 111.728C297.527 111.728 296.839 111.96 296.311 112.424C295.799 112.888 295.447 113.624 295.255 114.632H300.655C300.639 113.816 300.439 113.128 300.055 112.568C299.687 112.008 299.127 111.728 298.375 111.728ZM312.048 110.6C312.512 110.6 312.904 110.728 313.224 110.984C313.56 111.24 313.728 111.616 313.728 112.112C313.728 112.368 313.624 112.632 313.416 112.904C313.208 113.176 312.92 113.312 312.552 113.312C312.216 113.312 311.928 113.192 311.688 112.952C311.464 112.696 311.352 112.408 311.352 112.088C310.824 112.104 310.296 112.328 309.768 112.76C309.256 113.176 308.824 113.712 308.472 114.368V119.696C308.472 120.288 308.448 120.728 308.4 121.016L309.792 120.968V122.144H304.992V121.208H305.016C305.432 121.224 305.728 121.144 305.904 120.968C306.096 120.776 306.208 120.528 306.24 120.224C306.272 119.904 306.288 119.392 306.288 118.688V113.72C306.288 113.16 306.312 112.728 306.36 112.424L304.8 112.496V111.32H305.616C306.176 111.32 306.576 111.272 306.816 111.176C307.056 111.08 307.288 110.928 307.512 110.72H308.304C308.368 111.232 308.408 111.864 308.424 112.616C308.84 112.072 309.376 111.6 310.032 111.2C310.688 110.8 311.36 110.6 312.048 110.6Z" fill="#333333"/>
<line x1="5" y1="88.5" x2="295" y2="88.5" stroke="black"/>
<path d="M23.12 64.08C23.3333 64.6133 23.56 65.28 23.8 66.08C24.04 66.8533 24.1867 67.5067 24.24 68.04C25.12 67.96 25.8933 67.92 26.56 67.92V71H15.8V68.36C17.08 68.36 17.72 67.8267 17.72 66.76C17.72 66.2267 17.5733 65.5867 17.28 64.84L16.48 62.64L7.8 62.8L7.16 64.68C7.08 64.8933 6.89333 65.3733 6.6 66.12C6.33333 66.8667 6.09333 67.4667 5.88 67.92C6.73333 67.84 7.68 67.8 8.72 67.8V71H0.16V68.24C0.853333 68.24 1.42667 68.04 1.88 67.64C2.36 67.24 2.73333 66.76 3 66.2C3.26667 65.6133 3.6 64.7733 4 63.68L11.8 42.28H14.6L23.12 64.08ZM12.08 49.32C11.6533 51.24 11.16 53 10.6 54.6L8.8 59.8H15.48L13.64 54.8C12.8667 52.6133 12.36 50.7867 12.12 49.32H12.08ZM36.8788 52.24C41.6254 52.24 43.9988 54.56 43.9988 59.2L43.9588 65.16C43.9588 66.3067 43.9054 67.3733 43.7988 68.36C44.6521 68.28 45.4921 68.24 46.3188 68.24V71H39.0388C38.9854 70.68 38.9321 70.12 38.8788 69.32H38.8388C37.2921 70.84 35.3988 71.6 33.1588 71.6C31.5321 71.6 30.2521 71.1467 29.3188 70.24C28.3854 69.3333 27.9188 68.1733 27.9188 66.76C27.9188 64.6267 28.9588 63.0133 31.0388 61.92C33.1454 60.8 35.6788 60.1733 38.6388 60.04V58.16C38.6388 55.9467 37.7454 54.84 35.9588 54.84C35.4521 54.84 34.9588 54.9333 34.4788 55.12C33.9988 55.3067 33.5988 55.56 33.2788 55.88C33.5721 56.2267 33.7188 56.68 33.7188 57.24C33.7188 57.8267 33.5054 58.36 33.0788 58.84C32.6521 59.2933 32.0388 59.52 31.2388 59.52C30.4654 59.52 29.8521 59.2933 29.3988 58.84C28.9721 58.36 28.7588 57.76 28.7588 57.04C28.7588 56.1067 29.1188 55.28 29.8388 54.56C30.5588 53.8133 31.5321 53.24 32.7588 52.84C34.0121 52.44 35.3854 52.24 36.8788 52.24ZM38.5988 62.64C37.0788 62.7733 35.8254 63.1467 34.8388 63.76C33.8521 64.3467 33.3588 65.12 33.3588 66.08C33.3588 66.72 33.5721 67.2 33.9988 67.52C34.4254 67.84 34.9454 68 35.5588 68C36.7321 68 37.7454 67.5733 38.5988 66.72V62.64ZM61.9131 52.24C62.8731 52.24 63.6598 52.4933 64.2731 53C64.9131 53.5067 65.2331 54.2533 65.2331 55.24C65.2331 55.9067 65.0065 56.5067 64.5531 57.04C64.1265 57.5467 63.4865 57.8 62.6331 57.8C61.9665 57.8 61.3798 57.64 60.8731 57.32C60.3931 57 60.1131 56.4533 60.0331 55.68C59.3398 55.68 58.6065 56.08 57.8331 56.88C57.0598 57.68 56.5531 58.4533 56.3131 59.2V65.16C56.3131 66.3067 56.2598 67.3733 56.1531 68.36C56.9531 68.28 57.7931 68.24 58.6731 68.24V71H48.5531V68.64C49.5131 68.64 50.1265 68.3867 50.3931 67.88C50.6865 67.3467 50.8331 66.52 50.8331 65.4V59.28C50.8331 58.1867 50.8865 57.16 50.9931 56.2L48.3131 56.32V53.56C49.9131 53.56 51.2065 53.4533 52.1931 53.24C53.2065 53 53.8865 52.7333 54.2331 52.44H56.1131C56.2198 53.1333 56.2731 54.1867 56.2731 55.6H56.3531C58.1131 53.36 59.9665 52.24 61.9131 52.24ZM76.4288 52.24C78.2688 52.24 79.9221 52.6267 81.3888 53.4C82.8821 54.1467 84.0421 55.2267 84.8688 56.64C85.7221 58.0533 86.1488 59.7067 86.1488 61.6C86.1488 63.6 85.7354 65.36 84.9088 66.88C84.1088 68.3733 82.9754 69.5333 81.5088 70.36C80.0688 71.1867 78.4154 71.6 76.5488 71.6C74.6821 71.6 73.0021 71.2267 71.5088 70.48C70.0154 69.7067 68.8421 68.6267 67.9888 67.24C67.1354 65.8267 66.7088 64.1867 66.7088 62.32C66.7088 60.3467 67.1488 58.6 68.0288 57.08C68.9088 55.56 70.0821 54.3733 71.5488 53.52C73.0421 52.6667 74.6688 52.24 76.4288 52.24ZM76.4288 54.8C75.0154 54.8 73.9888 55.4267 73.3488 56.68C72.7088 57.9333 72.3888 59.48 72.3888 61.32C72.3888 63.4267 72.7354 65.24 73.4288 66.76C74.1221 68.2533 75.1888 69 76.6288 69C79.1621 69 80.4288 66.8267 80.4288 62.48C80.4288 60.4 80.1088 58.6 79.4688 57.08C78.8288 55.56 77.8154 54.8 76.4288 54.8ZM102.303 52.24C104.649 52.24 106.316 52.88 107.303 54.16C108.316 55.4133 108.823 57.4533 108.823 60.28V65.16C108.823 66.3067 108.769 67.3733 108.663 68.36C109.516 68.28 110.356 68.24 111.183 68.24V71H101.103V68.64C102.089 68.64 102.716 68.3867 102.983 67.88C103.249 67.3733 103.383 66.5467 103.383 65.4L103.343 60.24C103.343 58.64 103.103 57.4667 102.623 56.72C102.143 55.9733 101.343 55.6 100.223 55.6C99.6361 55.6 99.0095 55.7333 98.3428 56C97.7028 56.24 97.1695 56.5467 96.7428 56.92V65.16C96.7428 66.3067 96.6895 67.3733 96.5828 68.36C97.3828 68.28 98.2228 68.24 99.1028 68.24V71H88.9828V68.64C89.9428 68.64 90.5561 68.3867 90.8228 67.88C91.1161 67.3467 91.2628 66.52 91.2628 65.4V59.28C91.2628 58.1867 91.3161 57.16 91.4228 56.2L88.7428 56.32V53.56C90.3428 53.56 91.6361 53.4533 92.6228 53.24C93.6361 53 94.3161 52.7333 94.6628 52.44H96.5428C96.5428 52.4933 96.5961 53.1067 96.7028 54.28H96.7828C97.5295 53.72 98.4361 53.24 99.5028 52.84C100.596 52.44 101.529 52.24 102.303 52.24Z" fill="#333333"/>
</svg>
